<svg xmlns="http://www.w3.org/2000/svg" viewBox="0 0 300 400">
  <path d="M90 90 Q90 30 150 25 Q210 30 210 90 L210 70 Q210 35 150 30 Q90 35 90 70 Z" fill="#5C3317"/>
  <path d="M85 90 Q85 55 150 50 Q215 55 215 90 Q215 100 210 105 L210 85 Q205 60 150 55 Q95 60 90 85 L90 105 Q85 100 85 90 Z" fill="#5C3317"/>
  <!-- Long flowing hair -->
  <path d="M82 90 Q75 130 78 180 Q80 200 90 200 L90 130 Z" fill="#5C3317"/>
  <path d="M218 90 Q225 130 222 180 Q220 200 210 200 L210 130 Z" fill="#5C3317"/>
  <!-- Back hair -->
  <path d="M95 105 Q100 140 100 190 L95 190 Q88 150 90 105 Z" fill="#4A2710"/>
  <path d="M205 105 Q200 140 200 190 L205 190 Q212 150 210 105 Z" fill="#4A2710"/>
</svg>
