<svg xmlns="http://www.w3.org/2000/svg" viewBox="0 0 100 100">
  <circle cx="50" cy="50" r="45" fill="#E8F5E9"/>
  <circle cx="50" cy="50" r="40" fill="#F1F8E9"/>
  <!-- Ground -->
  <ellipse cx="50" cy="85" rx="28" ry="5" fill="#8D6E63"/>
  <!-- Trunk -->
  <path d="M46 82 L44 60 Q44 56 48 56 L52 56 Q56 56 56 60 L54 82 Z" fill="#795548"/>
  <path d="M48 80 L47 62 Q47 58 50 58 L50 58 Q53 58 53 62 L52 80 Z" fill="#8D6E63"/>
  <!-- Branch left -->
  <path d="M46 64 Q38 58 34 56" fill="none" stroke="#795548" stroke-width="3" stroke-linecap="round"/>
  <!-- Branch right -->
  <path d="M54 62 Q60 56 64 54" fill="none" stroke="#795548" stroke-width="3" stroke-linecap="round"/>
  <!-- Full canopy -->
  <circle cx="50" cy="36" r="24" fill="#4CAF50"/>
  <circle cx="36" cy="42" r="16" fill="#43A047"/>
  <circle cx="64" cy="42" r="16" fill="#43A047"/>
  <circle cx="50" cy="28" r="18" fill="#66BB6A"/>
  <circle cx="38" cy="34" r="12" fill="#81C784"/>
  <circle cx="62" cy="34" r="12" fill="#81C784"/>
</svg>
