<svg xmlns="http://www.w3.org/2000/svg" viewBox="0 0 100 100">
  <circle cx="50" cy="50" r="45" fill="#FFF8E1"/>
  <circle cx="50" cy="50" r="40" fill="#FFFDF5"/>
  <!-- Ground -->
  <ellipse cx="50" cy="85" rx="28" ry="5" fill="#8D6E63"/>
  <!-- Trunk -->
  <path d="M46 82 L44 60 Q44 56 48 56 L52 56 Q56 56 56 60 L54 82 Z" fill="#795548"/>
  <!-- Branches -->
  <path d="M46 64 Q38 58 34 56" fill="none" stroke="#795548" stroke-width="3" stroke-linecap="round"/>
  <path d="M54 62 Q60 56 64 54" fill="none" stroke="#795548" stroke-width="3" stroke-linecap="round"/>
  <!-- Canopy -->
  <circle cx="50" cy="36" r="24" fill="#4CAF50"/>
  <circle cx="36" cy="42" r="16" fill="#43A047"/>
  <circle cx="64" cy="42" r="16" fill="#43A047"/>
  <circle cx="50" cy="28" r="18" fill="#66BB6A"/>
  <!-- Golden lemons -->
  <ellipse cx="40" cy="40" rx="6" ry="5" fill="#FFB300" transform="rotate(10 40 40)"/>
  <ellipse cx="40" cy="40" rx="4" ry="3" fill="#FFC107" transform="rotate(10 40 40)"/>
  <ellipse cx="58" cy="36" rx="6" ry="5" fill="#FFB300" transform="rotate(-20 58 36)"/>
  <ellipse cx="58" cy="36" rx="4" ry="3" fill="#FFC107" transform="rotate(-20 58 36)"/>
  <ellipse cx="48" cy="48" rx="6" ry="5" fill="#FFB300" transform="rotate(5 48 48)"/>
  <ellipse cx="48" cy="48" rx="4" ry="3" fill="#FFC107" transform="rotate(5 48 48)"/>
  <ellipse cx="62" cy="46" rx="5.5" ry="4.5" fill="#FFB300"/>
  <ellipse cx="62" cy="46" rx="3.5" ry="3" fill="#FFC107"/>
  <!-- Sparkles -->
  <g fill="#FFD54F" opacity="0.9">
    <polygon points="30,24 31,27 34,27 32,29 33,32 30,30 27,32 28,29 26,27 29,27"/>
    <polygon points="70,22 71,25 74,25 72,27 73,30 70,28 67,30 68,27 66,25 69,25"/>
    <polygon points="50,16 51,19 54,19 52,21 53,24 50,22 47,24 48,21 46,19 49,19"/>
    <polygon points="74,40 75,42 77,42 75.5,43.5 76,46 74,44.5 72,46 72.5,43.5 71,42 73,42"/>
  </g>
</svg>
