<svg xmlns="http://www.w3.org/2000/svg" viewBox="0 0 100 100">
  <circle cx="50" cy="50" r="45" fill="#FFF8E1"/>
  <circle cx="50" cy="50" r="40" fill="#FFFDF5"/>
  <!-- Ground -->
  <rect x="12" y="72" width="76" height="18" rx="6" fill="#8D6E63"/>
  <rect x="14" y="72" width="72" height="10" rx="4" fill="#A1887F"/>
  <!-- Left tree -->
  <rect x="20" y="56" width="4" height="18" rx="1" fill="#795548"/>
  <circle cx="22" cy="46" r="14" fill="#4CAF50"/>
  <circle cx="22" cy="40" r="10" fill="#66BB6A"/>
  <ellipse cx="18" cy="46" rx="4" ry="3.5" fill="#FFB300"/>
  <ellipse cx="26" cy="44" rx="4" ry="3.5" fill="#FFB300"/>
  <!-- Center tree (larger) -->
  <rect x="47" y="50" width="6" height="22" rx="2" fill="#795548"/>
  <circle cx="50" cy="36" r="18" fill="#4CAF50"/>
  <circle cx="50" cy="28" r="13" fill="#66BB6A"/>
  <ellipse cx="44" cy="38" rx="5" ry="4" fill="#FFB300"/>
  <ellipse cx="56" cy="36" rx="5" ry="4" fill="#FFB300"/>
  <ellipse cx="50" cy="44" rx="5" ry="4" fill="#FFB300"/>
  <!-- Right tree -->
  <rect x="74" y="56" width="4" height="18" rx="1" fill="#795548"/>
  <circle cx="76" cy="46" r="14" fill="#4CAF50"/>
  <circle cx="76" cy="40" r="10" fill="#66BB6A"/>
  <ellipse cx="72" cy="46" rx="4" ry="3.5" fill="#FFB300"/>
  <ellipse cx="80" cy="44" rx="4" ry="3.5" fill="#FFB300"/>
  <!-- Sparkles -->
  <g fill="#FFD54F" opacity="0.8">
    <polygon points="22,26 23,28 25,28 23.5,29.5 24,32 22,30.5 20,32 20.5,29.5 19,28 21,28"/>
    <polygon points="50,16 51,18 53,18 51.5,19.5 52,22 50,20.5 48,22 48.5,19.5 47,18 49,18"/>
    <polygon points="76,26 77,28 79,28 77.5,29.5 78,32 76,30.5 74,32 74.5,29.5 73,28 75,28"/>
  </g>
</svg>
