<svg xmlns="http://www.w3.org/2000/svg" viewBox="0 0 100 100">
  <circle cx="50" cy="50" r="45" fill="#FFF8E1"/>
  <circle cx="50" cy="50" r="40" fill="#FFFDE7"/>
  <!-- Outer glow -->
  <ellipse cx="50" cy="52" rx="30" ry="26" fill="#FFB300" opacity="0.12"/>
  <!-- Golden lemon body -->
  <ellipse cx="50" cy="52" rx="20" ry="15" fill="#FFB300" transform="rotate(-10 50 52)"/>
  <ellipse cx="50" cy="52" rx="17" ry="12" fill="#FFCA28" transform="rotate(-10 50 52)"/>
  <!-- Lemon tip left -->
  <ellipse cx="33" cy="57" rx="5" ry="3" fill="#FFB300" transform="rotate(-25 33 57)"/>
  <!-- Lemon tip right -->
  <ellipse cx="67" cy="47" rx="4" ry="2.5" fill="#FFB300" transform="rotate(-25 67 47)"/>
  <!-- Highlight -->
  <ellipse cx="44" cy="46" rx="6" ry="3.5" fill="#FFECB3" opacity="0.7" transform="rotate(-20 44 46)"/>
  <!-- Stem -->
  <path d="M64 44 Q66 40 68 38" fill="none" stroke="#795548" stroke-width="2" stroke-linecap="round"/>
  <!-- Leaf -->
  <path d="M66 40 Q74 32 80 34 Q76 42 66 40" fill="#66BB6A"/>
  <!-- Crown -->
  <path d="M38 24 L42 16 L46 22 L50 14 L54 22 L58 16 L62 24 Z" fill="#FFB300"/>
  <path d="M38 24 L62 24 L62 28 L38 28 Z" fill="#FFB300"/>
  <circle cx="42" cy="16" r="2" fill="#FFD54F"/>
  <circle cx="50" cy="14" r="2.5" fill="#FFD54F"/>
  <circle cx="58" cy="16" r="2" fill="#FFD54F"/>
  <!-- Sparkle top-right -->
  <path d="M78 20 L80 16 L82 20 L86 22 L82 24 L80 28 L78 24 L74 22 Z" fill="#FFD54F"/>
  <!-- Sparkle left -->
  <path d="M18 42 L19.5 39 L21 42 L24 43.5 L21 45 L19.5 48 L18 45 L15 43.5 Z" fill="#FFD54F" opacity="0.7"/>
  <!-- Sparkle bottom-right -->
  <path d="M76 70 L77.5 67.5 L79 70 L81.5 71.5 L79 73 L77.5 75.5 L76 73 L73.5 71.5 Z" fill="#FFD54F" opacity="0.6"/>
  <!-- Sparkle bottom-left -->
  <path d="M22 66 L23.5 63.5 L25 66 L27.5 67.5 L25 69 L23.5 71.5 L22 69 L19.5 67.5 Z" fill="#FFD54F" opacity="0.5"/>
</svg>
