<svg xmlns="http://www.w3.org/2000/svg" viewBox="0 0 100 100">
  <circle cx="50" cy="50" r="45" fill="#FFFDE7"/>
  <circle cx="50" cy="50" r="40" fill="#FFFFF0"/>
  <!-- Ground -->
  <ellipse cx="50" cy="85" rx="28" ry="5" fill="#8D6E63"/>
  <!-- Trunk -->
  <path d="M46 82 L44 60 Q44 56 48 56 L52 56 Q56 56 56 60 L54 82 Z" fill="#795548"/>
  <!-- Branches -->
  <path d="M46 64 Q38 58 34 56" fill="none" stroke="#795548" stroke-width="3" stroke-linecap="round"/>
  <path d="M54 62 Q60 56 64 54" fill="none" stroke="#795548" stroke-width="3" stroke-linecap="round"/>
  <!-- Canopy -->
  <circle cx="50" cy="36" r="24" fill="#4CAF50"/>
  <circle cx="36" cy="42" r="16" fill="#43A047"/>
  <circle cx="64" cy="42" r="16" fill="#43A047"/>
  <circle cx="50" cy="28" r="18" fill="#66BB6A"/>
  <circle cx="38" cy="34" r="12" fill="#81C784"/>
  <circle cx="62" cy="34" r="12" fill="#81C784"/>
  <!-- One lemon -->
  <ellipse cx="55" cy="44" rx="7" ry="6" fill="#FFD54F" transform="rotate(-15 55 44)"/>
  <ellipse cx="55" cy="44" rx="5" ry="4" fill="#FFEB3B" transform="rotate(-15 55 44)"/>
  <!-- Lemon stem -->
  <path d="M53 38 Q54 36 55 34" fill="none" stroke="#66BB6A" stroke-width="1.5" stroke-linecap="round"/>
</svg>
