<svg width="30" height="20" viewBox="0 0 30 20" fill="none" xmlns="http://www.w3.org/2000/svg">
<g clip-path="url(#clip0_28_72)">
<rect width="30" height="20" rx="3" fill="#F7FCFF"/>
<mask id="mask0_28_72" style="mask-type:luminance" maskUnits="userSpaceOnUse" x="0" y="0" width="30" height="20">
<rect x="0.5" y="0.5" width="29" height="19" fill="white"/>
</mask>
<g mask="url(#mask0_28_72)">
<path fill-rule="evenodd" clip-rule="evenodd" d="M0.5 0.5V19.5H29.5V0.5H0.5Z" fill="#F7FCFF"/>
<mask id="mask1_28_72" style="mask-type:luminance" maskUnits="userSpaceOnUse" x="0" y="0" width="30" height="20">
<path fill-rule="evenodd" clip-rule="evenodd" d="M0.5 0.5V19.5H29.5V0.5H0.5Z" fill="white"/>
</mask>
<g mask="url(#mask1_28_72)">
<path fill-rule="evenodd" clip-rule="evenodd" d="M14.8066 15.2024C17.9026 15.2024 20.4123 12.9572 20.4123 10.1876C20.4123 7.41797 17.9026 5.17276 14.8066 5.17276C11.7106 5.17276 9.20087 7.41797 9.20087 10.1876C9.20087 12.9572 11.7106 15.2024 14.8066 15.2024Z" fill="#3D58DB"/>
<mask id="mask2_28_72" style="mask-type:luminance" maskUnits="userSpaceOnUse" x="9" y="5" width="12" height="11">
<path fill-rule="evenodd" clip-rule="evenodd" d="M14.8066 15.2024C17.9026 15.2024 20.4123 12.9572 20.4123 10.1876C20.4123 7.41797 17.9026 5.17276 14.8066 5.17276C11.7106 5.17276 9.20087 7.41797 9.20087 10.1876C9.20087 12.9572 11.7106 15.2024 14.8066 15.2024Z" fill="white"/>
</mask>
<g mask="url(#mask2_28_72)">
<path fill-rule="evenodd" clip-rule="evenodd" d="M20.6084 10.5717C20.6084 10.5717 20.2938 8.20708 17.9635 8.07871C15.6332 7.95034 15.0048 9.8128 14.8704 10.3062C14.7359 10.7997 14.3955 12.116 11.942 12.116C9.48845 12.116 9.26714 8.7689 9.26714 8.7689V4.82219H20.6084V10.5717Z" fill="#E31D1C"/>
</g>
<path fill-rule="evenodd" clip-rule="evenodd" d="M7.11504 2.12463L7.94422 2.77976L4.10149 6.70002L3.27231 6.04489L7.11504 2.12463ZM8.48256 3.1848L9.31175 3.83993L5.60676 7.70339L4.77758 7.04827L8.48256 3.1848ZM10.673 4.91315L9.84382 4.25803L6.12854 8.15081L6.95772 8.80594L10.673 4.91315Z" fill="#272727"/>
<path d="M7.94422 2.77976L7.99778 2.83226L8.05621 2.77265L7.99072 2.72091L7.94422 2.77976ZM7.11504 2.12463L7.16154 2.06579L7.10866 2.02401L7.06148 2.07213L7.11504 2.12463ZM4.10149 6.70002L4.055 6.75886L4.10788 6.80064L4.15505 6.75252L4.10149 6.70002ZM3.27231 6.04489L3.21875 5.99239L3.16032 6.052L3.22581 6.10374L3.27231 6.04489ZM9.31175 3.83993L9.36588 3.89184L9.42302 3.83225L9.35824 3.78108L9.31175 3.83993ZM8.48256 3.1848L8.52906 3.12595L8.47559 3.08371L8.42843 3.13289L8.48256 3.1848ZM5.60676 7.70339L5.56027 7.76224L5.61373 7.80448L5.66089 7.7553L5.60676 7.70339ZM4.77758 7.04827L4.72344 6.99635L4.66631 7.05594L4.73108 7.10711L4.77758 7.04827ZM9.84382 4.25803L9.89032 4.19918L9.83672 4.15684L9.78957 4.20625L9.84382 4.25803ZM10.673 4.91315L10.7273 4.96494L10.7841 4.90536L10.7195 4.85431L10.673 4.91315ZM6.12854 8.15081L6.07428 8.09903L6.01742 8.15861L6.08204 8.20966L6.12854 8.15081ZM6.95772 8.80594L6.91123 8.86479L6.96482 8.90713L7.01198 8.85772L6.95772 8.80594ZM7.94422 2.77976L7.99072 2.72091L7.16154 2.06579L7.11504 2.12463L7.06854 2.18348L7.89773 2.83861L7.94422 2.77976ZM4.10149 6.70002L4.15505 6.75252L7.99778 2.83226L7.94422 2.77976L7.89067 2.72726L4.04793 6.64752L4.10149 6.70002ZM3.27231 6.04489L3.22581 6.10374L4.055 6.75886L4.10149 6.70002L4.14799 6.64117L3.3188 5.98604L3.27231 6.04489ZM7.11504 2.12463L7.06148 2.07213L3.21875 5.99239L3.27231 6.04489L3.32587 6.09739L7.1686 2.17713L7.11504 2.12463ZM9.31175 3.83993L9.35824 3.78108L8.52906 3.12595L8.48256 3.1848L8.43607 3.24365L9.26525 3.89877L9.31175 3.83993ZM5.60676 7.70339L5.66089 7.7553L9.36588 3.89184L9.31175 3.83993L9.25762 3.78801L5.55263 7.65148L5.60676 7.70339ZM4.77758 7.04827L4.73108 7.10711L5.56027 7.76224L5.60676 7.70339L5.65326 7.64454L4.82407 6.98942L4.77758 7.04827ZM8.48256 3.1848L8.42843 3.13289L4.72344 6.99635L4.77758 7.04827L4.83171 7.10018L8.53669 3.23671L8.48256 3.1848ZM9.84382 4.25803L9.79733 4.31688L10.6265 4.972L10.673 4.91315L10.7195 4.85431L9.89032 4.19918L9.84382 4.25803ZM6.12854 8.15081L6.18279 8.20259L9.89808 4.30981L9.84382 4.25803L9.78957 4.20625L6.07428 8.09903L6.12854 8.15081ZM6.95772 8.80594L7.00422 8.74709L6.17503 8.09196L6.12854 8.15081L6.08204 8.20966L6.91123 8.86479L6.95772 8.80594ZM10.673 4.91315L10.6188 4.86137L6.90347 8.75416L6.95772 8.80594L7.01198 8.85772L10.7273 4.96494L10.673 4.91315Z" fill="#272727"/>
<path fill-rule="evenodd" clip-rule="evenodd" d="M22.7803 2.12463L21.9511 2.77976L25.7938 6.70002L26.623 6.04489L22.7803 2.12463ZM21.4128 3.1848L20.5836 3.83993L24.2886 7.70339L25.1177 7.04827L21.4128 3.1848ZM19.2223 4.91315L20.0515 4.25803L23.7668 8.15081L22.9376 8.80594L19.2223 4.91315Z" fill="#272727"/>
<path d="M21.9511 2.77976L21.8975 2.83226L21.8391 2.77265L21.9046 2.72091L21.9511 2.77976ZM22.7803 2.12463L22.7338 2.06579L22.7867 2.02401L22.8338 2.07213L22.7803 2.12463ZM25.7938 6.70002L25.8403 6.75886L25.7874 6.80064L25.7403 6.75252L25.7938 6.70002ZM26.623 6.04489L26.6766 5.99239L26.735 6.052L26.6695 6.10374L26.623 6.04489ZM20.5836 3.83993L20.5294 3.89184L20.4723 3.83225L20.5371 3.78108L20.5836 3.83993ZM21.4128 3.1848L21.3663 3.12595L21.4197 3.08371L21.4669 3.13289L21.4128 3.1848ZM24.2886 7.70339L24.3351 7.76224L24.2816 7.80448L24.2344 7.7553L24.2886 7.70339ZM25.1177 7.04827L25.1719 6.99635L25.229 7.05594L25.1642 7.10711L25.1177 7.04827ZM20.0515 4.25803L20.005 4.19918L20.0586 4.15684L20.1058 4.20625L20.0515 4.25803ZM19.2223 4.91315L19.1681 4.96494L19.1112 4.90536L19.1758 4.85431L19.2223 4.91315ZM23.7668 8.15081L23.821 8.09903L23.8779 8.15861L23.8133 8.20966L23.7668 8.15081ZM22.9376 8.80594L22.9841 8.86479L22.9305 8.90713L22.8833 8.85772L22.9376 8.80594ZM21.9511 2.77976L21.9046 2.72091L22.7338 2.06579L22.7803 2.12463L22.8268 2.18348L21.9976 2.83861L21.9511 2.77976ZM25.7938 6.70002L25.7403 6.75252L21.8975 2.83226L21.9511 2.77976L22.0047 2.72726L25.8474 6.64752L25.7938 6.70002ZM26.623 6.04489L26.6695 6.10374L25.8403 6.75886L25.7938 6.70002L25.7473 6.64117L26.5765 5.98604L26.623 6.04489ZM22.7803 2.12463L22.8338 2.07213L26.6766 5.99239L26.623 6.04489L26.5694 6.09739L22.7267 2.17713L22.7803 2.12463ZM20.5836 3.83993L20.5371 3.78108L21.3663 3.12595L21.4128 3.1848L21.4592 3.24365L20.6301 3.89877L20.5836 3.83993ZM24.2886 7.70339L24.2344 7.7553L20.5294 3.89184L20.5836 3.83993L20.6377 3.78801L24.3427 7.65148L24.2886 7.70339ZM25.1177 7.04827L25.1642 7.10711L24.3351 7.76224L24.2886 7.70339L24.2421 7.64454L25.0712 6.98942L25.1177 7.04827ZM21.4128 3.1848L21.4669 3.13289L25.1719 6.99635L25.1177 7.04827L25.0636 7.10018L21.3586 3.23671L21.4128 3.1848ZM20.0515 4.25803L20.098 4.31688L19.2688 4.972L19.2223 4.91315L19.1758 4.85431L20.005 4.19918L20.0515 4.25803ZM23.7668 8.15081L23.7125 8.20259L19.9972 4.30981L20.0515 4.25803L20.1058 4.20625L23.821 8.09903L23.7668 8.15081ZM22.9376 8.80594L22.8911 8.74709L23.7203 8.09196L23.7668 8.15081L23.8133 8.20966L22.9841 8.86479L22.9376 8.80594ZM19.2223 4.91315L19.2766 4.86137L22.9919 8.75416L22.9376 8.80594L22.8833 8.85772L19.1681 4.96494L19.2223 4.91315Z" fill="#272727"/>
<path fill-rule="evenodd" clip-rule="evenodd" d="M7.11504 18.3059L7.94422 17.6508L4.10149 13.7306L3.27231 14.3857L7.11504 18.3059ZM8.48256 17.2458L9.31175 16.5906L5.60676 12.7272L4.77758 13.3823L8.48256 17.2458ZM10.673 15.5174L9.84382 16.1725L6.12854 12.2798L6.95772 11.6246L10.673 15.5174Z" fill="#272727"/>
<path d="M7.94422 17.6508L7.99778 17.5983L8.05621 17.6579L7.99072 17.7097L7.94422 17.6508ZM7.11504 18.3059L7.16154 18.3648L7.10866 18.4066L7.06148 18.3584L7.11504 18.3059ZM4.10149 13.7306L4.055 13.6717L4.10788 13.6299L4.15505 13.6781L4.10149 13.7306ZM3.27231 14.3857L3.21875 14.4382L3.16032 14.3786L3.22581 14.3268L3.27231 14.3857ZM9.31175 16.5906L9.36588 16.5387L9.42302 16.5983L9.35824 16.6495L9.31175 16.5906ZM8.48256 17.2458L8.52906 17.3046L8.47559 17.3469L8.42843 17.2977L8.48256 17.2458ZM5.60676 12.7272L5.56027 12.6683L5.61373 12.6261L5.66089 12.6753L5.60676 12.7272ZM4.77758 13.3823L4.72344 13.4342L4.66631 13.3746L4.73108 13.3235L4.77758 13.3823ZM9.84382 16.1725L9.89032 16.2314L9.83672 16.2737L9.78957 16.2243L9.84382 16.1725ZM10.673 15.5174L10.7273 15.4656L10.7841 15.5252L10.7195 15.5763L10.673 15.5174ZM6.12854 12.2798L6.07428 12.3315L6.01742 12.272L6.08204 12.2209L6.12854 12.2798ZM6.95772 11.6246L6.91123 11.5658L6.96482 11.5234L7.01198 11.5729L6.95772 11.6246ZM7.94422 17.6508L7.99072 17.7097L7.16154 18.3648L7.11504 18.3059L7.06854 18.2471L7.89773 17.592L7.94422 17.6508ZM4.10149 13.7306L4.15505 13.6781L7.99778 17.5983L7.94422 17.6508L7.89067 17.7033L4.04793 13.7831L4.10149 13.7306ZM3.27231 14.3857L3.22581 14.3268L4.055 13.6717L4.10149 13.7306L4.14799 13.7894L3.3188 14.4445L3.27231 14.3857ZM7.11504 18.3059L7.06148 18.3584L3.21875 14.4382L3.27231 14.3857L3.32587 14.3332L7.1686 18.2534L7.11504 18.3059ZM9.31175 16.5906L9.35824 16.6495L8.52906 17.3046L8.48256 17.2458L8.43607 17.1869L9.26525 16.5318L9.31175 16.5906ZM5.60676 12.7272L5.66089 12.6753L9.36588 16.5387L9.31175 16.5906L9.25762 16.6426L5.55263 12.7791L5.60676 12.7272ZM4.77758 13.3823L4.73108 13.3235L5.56027 12.6683L5.60676 12.7272L5.65326 12.786L4.82407 13.4412L4.77758 13.3823ZM8.48256 17.2458L8.42843 17.2977L4.72344 13.4342L4.77758 13.3823L4.83171 13.3304L8.53669 17.1939L8.48256 17.2458ZM9.84382 16.1725L9.79733 16.1137L10.6265 15.4586L10.673 15.5174L10.7195 15.5763L9.89032 16.2314L9.84382 16.1725ZM6.12854 12.2798L6.18279 12.228L9.89808 16.1208L9.84382 16.1725L9.78957 16.2243L6.07428 12.3315L6.12854 12.2798ZM6.95772 11.6246L7.00422 11.6835L6.17503 12.3386L6.12854 12.2798L6.08204 12.2209L6.91123 11.5658L6.95772 11.6246ZM10.673 15.5174L10.6188 15.5692L6.90347 11.6764L6.95772 11.6246L7.01198 11.5729L10.7273 15.4656L10.673 15.5174Z" fill="#272727"/>
<path fill-rule="evenodd" clip-rule="evenodd" d="M22.7803 18.3059L21.9511 17.6508L25.7938 13.7306L26.623 14.3857L22.7803 18.3059ZM21.4128 17.2458L20.5836 16.5906L24.2886 12.7272L25.1177 13.3823L21.4128 17.2458ZM19.2223 15.5174L20.0515 16.1725L23.7668 12.2798L22.9376 11.6246L19.2223 15.5174Z" fill="#272727"/>
<path d="M21.9511 17.6508L21.8975 17.5983L21.8391 17.6579L21.9046 17.7097L21.9511 17.6508ZM22.7803 18.3059L22.7338 18.3648L22.7867 18.4066L22.8338 18.3584L22.7803 18.3059ZM25.7938 13.7306L25.8403 13.6717L25.7874 13.6299L25.7403 13.6781L25.7938 13.7306ZM26.623 14.3857L26.6766 14.4382L26.735 14.3786L26.6695 14.3268L26.623 14.3857ZM20.5836 16.5906L20.5294 16.5387L20.4723 16.5983L20.5371 16.6495L20.5836 16.5906ZM21.4128 17.2458L21.3663 17.3046L21.4197 17.3469L21.4669 17.2977L21.4128 17.2458ZM24.2886 12.7272L24.3351 12.6683L24.2816 12.6261L24.2344 12.6753L24.2886 12.7272ZM25.1177 13.3823L25.1719 13.4342L25.229 13.3746L25.1642 13.3235L25.1177 13.3823ZM20.0515 16.1725L20.005 16.2314L20.0586 16.2737L20.1058 16.2243L20.0515 16.1725ZM19.2223 15.5174L19.1681 15.4656L19.1112 15.5252L19.1758 15.5763L19.2223 15.5174ZM23.7668 12.2798L23.821 12.3315L23.8779 12.272L23.8133 12.2209L23.7668 12.2798ZM22.9376 11.6246L22.9841 11.5658L22.9305 11.5234L22.8833 11.5729L22.9376 11.6246ZM21.9511 17.6508L21.9046 17.7097L22.7338 18.3648L22.7803 18.3059L22.8268 18.2471L21.9976 17.592L21.9511 17.6508ZM25.7938 13.7306L25.7403 13.6781L21.8975 17.5983L21.9511 17.6508L22.0047 17.7033L25.8474 13.7831L25.7938 13.7306ZM26.623 14.3857L26.6695 14.3268L25.8403 13.6717L25.7938 13.7306L25.7473 13.7894L26.5765 14.4445L26.623 14.3857ZM22.7803 18.3059L22.8338 18.3584L26.6766 14.4382L26.623 14.3857L26.5694 14.3332L22.7267 18.2534L22.7803 18.3059ZM20.5836 16.5906L20.5371 16.6495L21.3663 17.3046L21.4128 17.2458L21.4592 17.1869L20.6301 16.5318L20.5836 16.5906ZM24.2886 12.7272L24.2344 12.6753L20.5294 16.5387L20.5836 16.5906L20.6377 16.6426L24.3427 12.7791L24.2886 12.7272ZM25.1177 13.3823L25.1642 13.3235L24.3351 12.6683L24.2886 12.7272L24.2421 12.786L25.0712 13.4412L25.1177 13.3823ZM21.4128 17.2458L21.4669 17.2977L25.1719 13.4342L25.1177 13.3823L25.0636 13.3304L21.3586 17.1939L21.4128 17.2458ZM20.0515 16.1725L20.098 16.1137L19.2688 15.4586L19.2223 15.5174L19.1758 15.5763L20.005 16.2314L20.0515 16.1725ZM23.7668 12.2798L23.7125 12.228L19.9972 16.1208L20.0515 16.1725L20.1058 16.2243L23.821 12.3315L23.7668 12.2798ZM22.9376 11.6246L22.8911 11.6835L23.7203 12.3386L23.7668 12.2798L23.8133 12.2209L22.9841 11.5658L22.9376 11.6246ZM19.2223 15.5174L19.2766 15.5692L22.9919 11.6764L22.9376 11.6246L22.8833 11.5729L19.1681 15.4656L19.2223 15.5174Z" fill="#272727"/>
</g>
</g>
</g>
<rect x="0.5" y="0.5" width="29" height="19" rx="2.5" stroke="#EAE3D9"/>
<defs>
<clipPath id="clip0_28_72">
<rect width="30" height="20" rx="3" fill="white"/>
</clipPath>
</defs>
</svg>
