<svg width="225" height="184" viewBox="0 0 225 184" fill="none" xmlns="http://www.w3.org/2000/svg">
<ellipse cx="104.579" cy="167.283" rx="28.5" ry="6" transform="rotate(-0.371816 104.579 167.283)" fill="#B1E7FF"/>
<ellipse cx="130.585" cy="167.114" rx="23.5" ry="6" transform="rotate(-0.371816 130.585 167.114)" fill="#B1E7FF"/>
<path d="M155.646 72.2494C151.027 74.5408 149.485 80.3277 150.434 88.3446C151.365 96.2053 154.634 105.417 158.524 113.26C162.434 121.141 166.871 128.036 171.606 132.264C173.963 134.369 176.322 135.748 178.658 136.312C180.957 136.867 183.325 136.655 185.804 135.425C196.207 130.265 203.2 114.147 195.695 99.0175C191.902 91.3721 184.372 83.3014 176.388 77.8372C172.406 75.1111 168.382 73.0838 164.734 72.0688C161.065 71.0479 157.963 71.0999 155.646 72.2494Z" fill="#FFEF7E" stroke="#0B5CEC" stroke-width="3.16923"/>
<path d="M96.8051 136.912C99.6948 136.789 102.527 138.3 104.753 141.139C106.977 143.974 108.5 148.038 108.697 152.663C108.893 157.288 107.721 161.466 105.746 164.481C103.769 167.498 101.076 169.244 98.1864 169.367C91.3632 169.658 84.2107 162.884 83.8206 153.722C83.6302 149.246 85.324 145.083 87.8991 141.999C90.4971 138.887 93.843 137.038 96.8051 136.912Z" fill="#FFEF7E" stroke="#0B5CEC" stroke-width="3.16923"/>
<path d="M137.768 133.132C135.05 133.247 132.485 134.957 130.589 137.976C128.697 140.989 127.575 145.175 127.772 149.814C127.97 154.453 129.444 158.527 131.585 161.368C133.73 164.216 136.431 165.702 139.15 165.587C146.342 165.28 151.915 158.09 151.519 148.803C151.328 144.308 149.353 140.293 146.637 137.437C143.893 134.552 140.563 133.013 137.768 133.132Z" fill="#FFEF7E" stroke="#0B5CEC" stroke-width="3.16923"/>
<path d="M96.9386 24.7528C101.015 23.844 103.625 26.1898 104.6 28.5625C104.994 29.5215 106.001 30.2191 107.156 30.0756C138.678 26.1518 166.494 47.2634 173.592 79.0954C181.116 112.835 159.862 146.287 126.122 153.81C92.3823 161.334 58.9318 140.08 51.4084 106.34C44.3682 74.7673 60.2221 44.0931 89.9825 33.9861C91.0838 33.6121 91.6856 32.5465 91.6245 31.5138C91.4719 28.9323 92.8422 25.6665 96.9386 24.7528Z" fill="url(#paint0_radial_45_281)" stroke="#0B5CEC" stroke-width="3.16923"/>
<path d="M144.608 15.1091C145.033 21.6352 141.416 28.8463 130.921 34.5552C125.53 37.4879 120.909 38.6013 116.908 38.4092C113.147 38.2286 109.809 36.888 106.772 34.6155C106.38 27.9448 109.658 19.9656 119.942 14.3715C130.415 8.67472 140.338 10.4656 144.608 15.1091Z" fill="#AFFF62" stroke="#0B5CEC" stroke-width="3.16923"/>
<rect x="120.234" y="67.5459" width="5.54615" height="2.37692" rx="1.18846" transform="rotate(-43.8865 120.234 67.5459)" fill="#0B5CEC"/>
<rect x="92.2638" y="71.6043" width="5.54615" height="2.37692" rx="1.18846" transform="rotate(16.1135 92.2638 71.6043)" fill="#0B5CEC"/>
<g filter="url(#filter0_f_45_281)">
<circle cx="88.8843" cy="93.3201" r="13.7993" transform="rotate(-13.8865 88.8843 93.3201)" fill="#FFA964" fill-opacity="0.7"/>
</g>
<circle cx="97.1992" cy="84.2589" r="4.75385" transform="rotate(-13.8865 97.1992 84.2589)" fill="#0B5CEC"/>
<g filter="url(#filter1_f_45_281)">
<path d="M147.95 78.3096C149.726 85.4956 145.341 92.7611 138.155 94.5377C130.969 96.3142 123.703 91.929 121.927 84.743C120.15 77.557 124.535 70.2914 131.721 68.5149C138.907 66.7383 146.173 71.1236 147.95 78.3096Z" fill="#FFA964" fill-opacity="0.7"/>
</g>
<circle cx="125.888" cy="78.4984" r="4.755" transform="rotate(-8.63727 125.888 78.4984)" fill="#0B5CEC"/>
<path d="M87.7379 90.0536C87.9488 89.6379 88.4269 89.4407 88.8746 89.5708C89.4896 89.7495 89.782 90.4545 89.5023 91.0307C89.2335 91.5845 88.9399 92.2443 88.79 92.7601C88.6599 93.2079 88.5785 93.7524 88.5278 94.2398C88.4603 94.8876 87.8283 95.3512 87.2029 95.1694C86.7755 95.0453 86.4838 94.6507 86.5151 94.2067C86.5562 93.6235 86.6428 92.8124 86.824 92.1889C87.0128 91.539 87.4298 90.6607 87.7379 90.0536Z" fill="#0B5CEC"/>
<path d="M90.4559 90.414C90.4599 89.9904 90.7595 89.6348 91.1708 89.5331C91.8121 89.3746 92.4234 89.888 92.4534 90.548C92.4689 90.8915 92.5042 91.2375 92.5753 91.4995C92.6309 91.7045 92.721 91.93 92.8235 92.1507C93.104 92.755 92.8101 93.5096 92.1634 93.6695C91.7666 93.7676 91.3498 93.6057 91.1495 93.2494C90.9413 92.879 90.6975 92.3952 90.5878 91.9908C90.4719 91.5636 90.4512 90.9124 90.4559 90.414Z" fill="#0B5CEC"/>
<path d="M136.501 77.998C136.121 77.7285 135.606 77.7769 135.271 78.1005C134.81 78.5452 134.88 79.3053 135.396 79.6848C135.892 80.0495 136.459 80.4964 136.832 80.883C137.155 81.2186 137.481 81.6625 137.753 82.0701C138.115 82.6119 138.89 82.7275 139.359 82.2752C139.679 81.9662 139.753 81.4812 139.519 81.1029C139.211 80.6061 138.756 79.9288 138.305 79.4615C137.835 78.9745 137.057 78.3917 136.501 77.998Z" fill="#0B5CEC"/>
<path d="M134.265 79.5835C134.064 79.2105 133.633 79.0355 133.222 79.1371C132.58 79.2957 132.279 80.0349 132.56 80.6327C132.706 80.9439 132.836 81.2666 132.895 81.5314C132.941 81.7388 132.967 81.9802 132.979 82.2233C133.012 82.8887 133.624 83.4194 134.271 83.2595C134.668 83.1614 134.961 82.824 134.972 82.4154C134.984 81.9906 134.974 81.4489 134.883 81.0401C134.786 80.6081 134.501 80.0222 134.265 79.5835Z" fill="#0B5CEC"/>
<path d="M113.592 86.3299C113.592 86.3299 113.034 88.7488 111.995 89.9995C110.956 91.2502 108.466 91.6603 108.466 91.6603" stroke="#0B5CEC" stroke-width="3.52137" stroke-linecap="round"/>
<path d="M113.592 86.3299C113.592 86.3299 115.104 88.2371 116.479 88.8909C117.854 89.5447 120.004 88.808 120.004 88.808" stroke="#0B5CEC" stroke-width="3.52137" stroke-linecap="round"/>
<path d="M113.395 102.124C107.855 89.6321 95.0829 94.9901 78.1312 104.728L93.8665 141.294C110.818 131.556 118.935 114.617 113.395 102.124Z" fill="#FFEC6D"/>
<path d="M78.0356 104.808C94.9873 95.0694 107.76 89.7114 113.3 102.204C118.84 114.696 110.723 131.635 93.7709 141.374" stroke="#0B5CEC" stroke-width="3.2"/>
<defs>
<filter id="filter0_f_45_281" x="62.4049" y="66.8406" width="52.9589" height="52.9589" filterUnits="userSpaceOnUse" color-interpolation-filters="sRGB">
<feFlood flood-opacity="0" result="BackgroundImageFix"/>
<feBlend mode="normal" in="SourceGraphic" in2="BackgroundImageFix" result="shape"/>
<feGaussianBlur stdDeviation="6.33846" result="effect1_foregroundBlur_45_281"/>
</filter>
<filter id="filter1_f_45_281" x="108.855" y="55.4431" width="52.1664" height="52.1664" filterUnits="userSpaceOnUse" color-interpolation-filters="sRGB">
<feFlood flood-opacity="0" result="BackgroundImageFix"/>
<feBlend mode="normal" in="SourceGraphic" in2="BackgroundImageFix" result="shape"/>
<feGaussianBlur stdDeviation="6.33846" result="effect1_foregroundBlur_45_281"/>
</filter>
<radialGradient id="paint0_radial_45_281" cx="0" cy="0" r="1" gradientUnits="userSpaceOnUse" gradientTransform="translate(122.364 50.7419) rotate(87.7539) scale(104.695 100.359)">
<stop offset="0.0881009" stop-color="#FFE74D"/>
<stop offset="1" stop-color="#FFEF7E"/>
</radialGradient>
</defs>
</svg>
