<svg width="225" height="184" viewBox="0 0 225 184" fill="none" xmlns="http://www.w3.org/2000/svg">
<ellipse cx="104.579" cy="167.283" rx="28.5" ry="6" transform="rotate(-0.371816 104.579 167.283)" fill="#B1E7FF"/>
<ellipse cx="130.585" cy="167.114" rx="23.5" ry="6" transform="rotate(-0.371816 130.585 167.114)" fill="#B1E7FF"/>
<path d="M59.192 87.5901C64.369 88.7854 68.1035 94.1522 70.0101 101.974C71.89 109.687 71.823 119.219 69.8796 127.638C67.9079 136.178 65.0562 143.33 61.3299 147.971C57.6666 152.533 53.2746 154.566 47.9156 153.329C36.7224 150.745 26.6663 135.806 30.489 119.247C32.4235 110.867 36.9075 102.19 42.363 95.9836C47.9032 89.6813 54.0005 86.3916 59.192 87.5901Z" fill="#FFEF7E" stroke="#0B5CEC" stroke-width="3.16923"/>
<path d="M95.8049 136.912C98.6946 136.789 101.527 138.3 103.753 141.139C105.977 143.974 107.5 148.038 107.696 152.663C107.893 157.288 106.721 161.466 104.746 164.481C102.769 167.498 100.076 169.244 97.1862 169.367C90.3631 169.658 83.2105 162.884 82.8205 153.722C82.63 149.246 84.3238 145.083 86.8989 141.999C89.4969 138.887 92.8428 137.038 95.8049 136.912Z" fill="#FFEF7E" stroke="#0B5CEC" stroke-width="3.16923"/>
<path d="M132.768 134.132C130.05 134.247 127.485 135.957 125.589 138.976C123.697 141.989 122.575 146.175 122.772 150.814C122.97 155.452 124.443 159.527 126.584 162.368C128.73 165.216 131.431 166.702 134.149 166.587C141.342 166.28 146.914 159.09 146.519 149.803C146.328 145.308 144.353 141.293 141.637 138.437C138.893 135.552 135.563 134.013 132.768 134.132Z" fill="#FFEF7E" stroke="#0B5CEC" stroke-width="3.16923"/>
<path d="M108.515 23.1574C112.687 22.9799 114.843 25.7482 115.386 28.2555C115.605 29.269 116.474 30.1329 117.637 30.1948C149.357 31.8781 173.025 57.5543 174.412 90.1385C175.882 124.676 149.074 153.866 114.537 155.336C79.9996 156.806 50.8102 129.999 49.3403 95.4616C47.9648 63.1426 68.9682 35.7361 100.043 31.0228C101.192 30.8484 101.972 29.9053 102.094 28.878C102.398 26.3099 104.321 23.3361 108.515 23.1574Z" fill="url(#paint0_radial_45_370)" stroke="#0B5CEC" stroke-width="3.16923"/>
<path d="M157.645 23.6165C156.53 30.0607 151.324 36.2239 139.784 39.3161C133.856 40.9046 129.104 40.905 125.258 39.781C121.644 38.7247 118.714 36.6397 116.293 33.7191C117.475 27.1421 122.53 20.1524 133.838 17.1225C145.353 14.0369 154.581 18.1021 157.645 23.6165Z" fill="#AFFF62" stroke="#0B5CEC" stroke-width="3.16923"/>
<rect x="122.81" y="69.0776" width="5.54615" height="2.37692" rx="1.18846" transform="rotate(-35.2492 122.81 69.0776)" fill="#0B5CEC"/>
<rect x="94.5474" y="68.8894" width="5.54615" height="2.37692" rx="1.18846" transform="rotate(24.7508 94.5474 68.8894)" fill="#0B5CEC"/>
<g filter="url(#filter0_f_45_370)">
<circle cx="87.945" cy="89.8513" r="13.7993" transform="rotate(-5.24919 87.945 89.8513)" fill="#FFA964" fill-opacity="0.7"/>
</g>
<circle cx="97.5264" cy="82.1417" r="4.75385" transform="rotate(-5.24919 97.5264 82.1417)" fill="#0B5CEC"/>
<g filter="url(#filter1_f_45_370)">
<path d="M148.595 83.8814C149.272 91.2527 143.845 97.7773 136.474 98.4545C129.103 99.1318 122.578 93.7052 121.901 86.3339C121.224 78.9626 126.65 72.4379 134.021 71.7607C141.393 71.0835 147.917 76.5101 148.595 83.8814Z" fill="#FFA964" fill-opacity="0.7"/>
</g>
<path d="M130.731 76.1538C130.731 76.1538 128.801 76.1538 126.165 77.4096C124.318 78.2898 122.928 79.5711 122.333 80.174C122.227 80.2816 122.323 80.4599 122.473 80.4403C123.279 80.3351 125.09 80.1838 127.41 80.5115C129.901 80.9077 130.731 81.7 130.731 81.7" stroke="#0B5CEC" stroke-width="2.37692" stroke-linecap="round"/>
<path d="M87.3021 86.4498C87.5731 86.0704 88.0753 85.9473 88.4984 86.1431C89.0796 86.4122 89.2628 87.1531 88.8998 87.6808C88.5508 88.1879 88.1615 88.7961 87.9358 89.2836C87.74 89.7067 87.5777 90.2329 87.4544 90.7071C87.2904 91.3375 86.5959 91.7008 86.0048 91.4272C85.6009 91.2403 85.3719 90.8064 85.4695 90.3721C85.5976 89.8017 85.8052 89.0128 86.0779 88.4236C86.3622 87.8094 86.9064 87.0037 87.3021 86.4498Z" fill="#0B5CEC"/>
<path d="M89.9351 87.2143C90.0026 86.796 90.3522 86.4895 90.7741 86.4507C91.432 86.3903 91.9593 86.9897 91.8898 87.6467C91.8536 87.9886 91.8365 88.3361 91.8674 88.6057C91.8916 88.8168 91.9468 89.0532 92.015 89.2869C92.2015 89.9264 91.7977 90.6283 91.1343 90.6893C90.7272 90.7267 90.3395 90.504 90.195 90.1216C90.0448 89.7242 89.8764 89.2092 89.8287 88.793C89.7783 88.3532 89.8555 87.7063 89.9351 87.2143Z" fill="#0B5CEC"/>
<path d="M137.323 81.8542C136.988 81.5306 136.471 81.501 136.091 81.7707C135.568 82.1411 135.523 82.903 135.976 83.3557C136.412 83.7908 136.906 84.3178 137.216 84.756C137.486 85.1364 137.741 85.6242 137.949 86.068C138.225 86.6579 138.974 86.8887 139.506 86.5119C139.869 86.2545 140.015 85.7861 139.84 85.377C139.61 84.8394 139.262 84.1016 138.886 83.5719C138.495 83.0198 137.813 82.3267 137.323 81.8542Z" fill="#0B5CEC"/>
<path d="M134.873 83.0857C134.731 82.6867 134.331 82.449 133.909 82.4878C133.251 82.5482 132.842 83.2337 133.03 83.867C133.128 84.1966 133.208 84.5351 133.227 84.8059C133.242 85.0178 133.23 85.2604 133.206 85.5025C133.139 86.1653 133.664 86.7819 134.327 86.721C134.735 86.6836 135.075 86.394 135.148 85.9917C135.223 85.5736 135.295 85.0365 135.266 84.6186C135.235 84.177 135.041 83.555 134.873 83.0857Z" fill="#0B5CEC"/>
<path d="M113.422 86.651C113.422 86.651 112.507 88.9587 111.292 90.0392C110.077 91.1196 107.554 91.1512 107.554 91.1512" stroke="#0B5CEC" stroke-width="3.52137" stroke-linecap="round"/>
<path d="M113.422 86.651C113.422 86.651 114.631 88.7636 115.892 89.6166C117.153 90.4695 119.389 90.0639 119.389 90.0639" stroke="#0B5CEC" stroke-width="3.52137" stroke-linecap="round"/>
<path d="M135 91L143.949 106.5" stroke="#0B5CEC" stroke-width="4" stroke-linecap="round"/>
<circle cx="128" cy="78" r="15" fill="white" fill-opacity="0.7" stroke="#0B5CEC" stroke-width="4"/>
<path d="M134.45 98.1591C141.254 87.5237 152.848 93.0478 167.922 102.69L148.469 133.852C133.395 124.209 127.647 108.795 134.45 98.1591Z" fill="#FFEC6D"/>
<path d="M168.004 102.766C152.93 93.1237 141.336 87.5996 134.532 98.2351C127.729 108.871 133.477 124.285 148.55 133.928" stroke="#0B5CEC" stroke-width="3.2"/>
<path d="M74.7683 53.9981C74.9441 53.2178 76.0559 53.2178 76.2317 53.9981L77.7398 60.6933C77.8035 60.9759 78.0241 61.1965 78.3067 61.2602L85.0019 62.7683C85.7822 62.9441 85.7822 64.0559 85.0019 64.2317L78.3067 65.7398C78.0241 65.8035 77.8035 66.0241 77.7398 66.3067L76.2317 73.0019C76.0559 73.7822 74.9441 73.7822 74.7683 73.0019L73.2602 66.3067C73.1965 66.0241 72.9759 65.8035 72.6933 65.7398L65.9981 64.2317C65.2178 64.0559 65.2178 62.9441 65.9981 62.7683L72.6933 61.2602C72.9759 61.1965 73.1965 60.9759 73.2602 60.6933L74.7683 53.9981Z" fill="white"/>
<defs>
<filter id="filter0_f_45_370" x="61.468" y="63.3742" width="52.9542" height="52.9542" filterUnits="userSpaceOnUse" color-interpolation-filters="sRGB">
<feFlood flood-opacity="0" result="BackgroundImageFix"/>
<feBlend mode="normal" in="SourceGraphic" in2="BackgroundImageFix" result="shape"/>
<feGaussianBlur stdDeviation="6.33846" result="effect1_foregroundBlur_45_370"/>
</filter>
<filter id="filter1_f_45_370" x="109.167" y="59.0267" width="52.1618" height="52.1618" filterUnits="userSpaceOnUse" color-interpolation-filters="sRGB">
<feFlood flood-opacity="0" result="BackgroundImageFix"/>
<feBlend mode="normal" in="SourceGraphic" in2="BackgroundImageFix" result="shape"/>
<feGaussianBlur stdDeviation="6.33846" result="effect1_foregroundBlur_45_370"/>
</filter>
<radialGradient id="paint0_radial_45_370" cx="0" cy="0" r="1" gradientUnits="userSpaceOnUse" gradientTransform="translate(128.971 53.2144) rotate(97.8871) scale(104.695 100.359)">
<stop offset="0.0881009" stop-color="#FFE74D"/>
<stop offset="1" stop-color="#FFEF7E"/>
</radialGradient>
</defs>
</svg>
