<svg width="253" height="206" viewBox="0 0 253 206" fill="none" xmlns="http://www.w3.org/2000/svg">
<ellipse cx="116.579" cy="190.283" rx="28.5" ry="6" transform="rotate(-0.371816 116.579 190.283)" fill="#B1E7FF"/>
<ellipse cx="142.585" cy="190.114" rx="23.5" ry="6" transform="rotate(-0.371816 142.585 190.114)" fill="#B1E7FF"/>
<path d="M69.6385 96.5723C75.0757 98.8538 77.7018 105.327 77.7799 114.296C77.8567 123.125 75.4197 133.626 71.6315 142.653C67.8142 151.751 63.2855 159.14 58.2662 163.577C53.332 167.938 48.0726 169.354 42.3645 166.959C30.4416 161.956 22.1373 143.465 29.5386 125.826C33.2608 116.956 40.4086 108.29 48.1997 102.527C52.0891 99.65 56.0741 97.545 59.7999 96.4789C63.5288 95.412 66.8806 95.4151 69.6385 96.5723Z" fill="#FFEF7E" stroke="#0B5CEC" stroke-width="3.5671"/>
<path d="M185.133 120.771C180.068 117.936 178.659 111.344 180.174 102.385C181.661 93.6 185.85 83.428 190.663 74.8291C195.499 66.1879 200.872 58.6856 206.431 54.1972C209.199 51.9628 211.928 50.5446 214.585 50.0416C217.201 49.5464 219.851 49.9167 222.569 51.4375C233.974 57.8207 240.935 76.3307 231.652 92.9192C226.961 101.302 218.044 109.952 208.764 115.648C204.134 118.49 199.497 120.544 195.339 121.481C191.157 122.424 187.673 122.193 185.133 120.771Z" fill="#FFEF7E" stroke="#0B5CEC" stroke-width="3.5671"/>
<path d="M108.147 154.149C111.4 154.011 114.587 155.712 117.093 158.907C119.596 162.098 121.311 166.672 121.532 171.877C121.754 177.083 120.434 181.786 118.211 185.179C115.986 188.575 112.954 190.541 109.702 190.68C102.022 191.006 93.9712 183.382 93.5322 173.069C93.318 168.032 95.2254 163.346 98.1238 159.875C101.048 156.372 104.813 154.291 108.147 154.149Z" fill="#FFEF7E" stroke="#0B5CEC" stroke-width="3.5671"/>
<path d="M149.751 151.02C146.691 151.15 143.805 153.075 141.67 156.474C139.541 159.864 138.278 164.575 138.5 169.796C138.722 175.017 140.381 179.604 142.791 182.802C145.206 186.007 148.246 187.68 151.305 187.55C159.401 187.205 165.674 179.111 165.229 168.659C165.014 163.599 162.791 159.08 159.734 155.866C156.646 152.618 152.896 150.886 149.751 151.02Z" fill="#FFEF7E" stroke="#0B5CEC" stroke-width="3.5671"/>
<path d="M122.454 26.1134C127.15 25.9138 129.576 29.0302 130.187 31.8523C130.434 32.9931 131.412 33.9661 132.721 34.0356C168.423 35.9303 195.061 64.8295 196.622 101.504C198.276 140.378 168.104 173.232 129.231 174.887C90.3579 176.541 57.5034 146.369 55.849 107.496C54.3007 71.1191 77.9423 40.2722 112.918 34.9673C114.212 34.7709 115.089 33.7096 115.226 32.5535C115.568 29.6629 117.733 26.3143 122.454 26.1134Z" fill="url(#paint0_radial_53_193)" stroke="#0B5CEC" stroke-width="3.5671"/>
<path d="M177.436 26.4773C176.181 33.7306 170.322 40.6682 157.333 44.1486C150.661 45.9365 145.312 45.9365 140.984 44.6714C136.916 43.4825 133.617 41.1364 130.893 37.8495C132.222 30.4465 137.911 22.578 150.639 19.1675C163.601 15.6945 173.987 20.2707 177.436 26.4773Z" fill="#AFFF62" stroke="#0B5CEC" stroke-width="3.5671"/>
<rect x="138.228" y="77.6458" width="6.24242" height="2.67532" rx="1.33766" transform="rotate(-35.2492 138.228 77.6458)" fill="#0B5CEC"/>
<rect x="106.417" y="77.434" width="6.24242" height="2.67532" rx="1.33766" transform="rotate(24.7508 106.417 77.434)" fill="#0B5CEC"/>
<g filter="url(#filter0_f_53_193)">
<circle cx="98.9856" cy="101.027" r="15.5317" transform="rotate(-5.24919 98.9856 101.027)" fill="#FFA964" fill-opacity="0.7"/>
</g>
<circle cx="109.77" cy="92.35" r="5.35065" transform="rotate(-5.24919 109.77 92.35)" fill="#0B5CEC"/>
<g filter="url(#filter1_f_53_193)">
<path d="M167.249 94.3081C168.012 102.605 161.904 109.948 153.607 110.711C145.31 111.473 137.967 105.365 137.204 97.0684C136.442 88.7717 142.55 81.428 150.847 80.6657C159.143 79.9035 166.487 86.0114 167.249 94.3081Z" fill="#FFA964" fill-opacity="0.7"/>
</g>
<circle cx="142.818" cy="89.8387" r="5.35065" transform="rotate(-5.24919 142.818 89.8387)" fill="#0B5CEC"/>
<path d="M98.262 97.1989C98.567 96.7719 99.1323 96.6334 99.6085 96.8538C100.263 97.1566 100.469 97.9905 100.06 98.5844C99.6675 99.1553 99.2293 99.8398 98.9753 100.388C98.7549 100.865 98.5723 101.457 98.4334 101.991C98.2489 102.7 97.4672 103.109 96.8019 102.801C96.3473 102.591 96.0895 102.102 96.1993 101.614C96.3436 100.972 96.5772 100.084 96.8841 99.4205C97.2041 98.7292 97.8166 97.8223 98.262 97.1989Z" fill="#0B5CEC"/>
<path d="M101.226 98.0594C101.302 97.5886 101.695 97.2436 102.17 97.2C102.91 97.1319 103.504 97.8066 103.426 98.5461C103.385 98.9309 103.366 99.322 103.401 99.6255C103.428 99.863 103.49 100.129 103.567 100.392C103.777 101.112 103.322 101.902 102.575 101.971C102.117 102.013 101.681 101.762 101.518 101.332C101.349 100.884 101.16 100.305 101.106 99.8363C101.049 99.3413 101.136 98.6132 101.226 98.0594Z" fill="#0B5CEC"/>
<path d="M154.563 92.0263C154.185 91.6621 153.604 91.6289 153.176 91.9323C152.588 92.3493 152.537 93.2068 153.047 93.7164C153.537 94.2061 154.093 94.7993 154.443 95.2925C154.746 95.7206 155.034 96.2696 155.268 96.7692C155.578 97.4332 156.421 97.6928 157.019 97.2688C157.428 96.9791 157.593 96.4519 157.396 95.9914C157.137 95.3864 156.745 94.5559 156.323 93.9597C155.882 93.3383 155.115 92.5582 154.563 92.0263Z" fill="#0B5CEC"/>
<path d="M151.806 93.4124C151.645 92.9634 151.195 92.6959 150.721 92.7395C149.98 92.8075 149.519 93.579 149.731 94.2919C149.841 94.6628 149.931 95.0439 149.953 95.3486C149.969 95.5871 149.956 95.8602 149.929 96.1327C149.854 96.8787 150.444 97.5727 151.191 97.5041C151.649 97.462 152.033 97.1361 152.114 96.6833C152.199 96.2126 152.28 95.6082 152.247 95.1378C152.213 94.6407 151.995 93.9407 151.806 93.4124Z" fill="#0B5CEC"/>
<path d="M127.661 97.4254C127.661 97.4254 126.632 100.023 125.264 101.239C123.896 102.455 121.057 102.491 121.057 102.491" stroke="#0B5CEC" stroke-width="3.96344" stroke-linecap="round"/>
<path d="M127.661 97.4254C127.661 97.4254 129.021 99.8032 130.441 100.763C131.861 101.723 134.377 101.267 134.377 101.267" stroke="#0B5CEC" stroke-width="3.96344" stroke-linecap="round"/>
<path d="M243.962 16.8926C244.255 16.4299 244.866 16.289 245.332 16.5766L246.07 17.0319C246.536 17.3195 246.684 17.9285 246.402 18.398L222.514 58.1555C222.227 58.6328 221.606 58.7839 221.132 58.4915L219.466 57.4636C218.992 57.1712 218.848 56.548 219.146 56.0775L243.962 16.8926Z" fill="#695050"/>
<path d="M134.642 92.8146C128.374 91.6921 126.66 92.1022 121.12 93.3699" stroke="#695050" stroke-width="2.5"/>
<circle cx="15" cy="15" r="13.75" transform="matrix(-1 0 0 1 161.995 78.9774)" stroke="#695050" stroke-width="2.5"/>
<circle cx="15" cy="15" r="13.75" transform="matrix(-1 0 0 1 121.995 81.9774)" stroke="#695050" stroke-width="2.5"/>
<defs>
<filter id="filter0_f_53_193" x="69.1846" y="71.2264" width="59.6021" height="59.6021" filterUnits="userSpaceOnUse" color-interpolation-filters="sRGB">
<feFlood flood-opacity="0" result="BackgroundImageFix"/>
<feBlend mode="normal" in="SourceGraphic" in2="BackgroundImageFix" result="shape"/>
<feGaussianBlur stdDeviation="7.1342" result="effect1_foregroundBlur_53_193"/>
</filter>
<filter id="filter1_f_53_193" x="122.872" y="66.3331" width="58.7103" height="58.7103" filterUnits="userSpaceOnUse" color-interpolation-filters="sRGB">
<feFlood flood-opacity="0" result="BackgroundImageFix"/>
<feBlend mode="normal" in="SourceGraphic" in2="BackgroundImageFix" result="shape"/>
<feGaussianBlur stdDeviation="7.1342" result="effect1_foregroundBlur_53_193"/>
</filter>
<radialGradient id="paint0_radial_53_193" cx="0" cy="0" r="1" gradientUnits="userSpaceOnUse" gradientTransform="translate(145.477 59.9446) rotate(97.8871) scale(117.839 112.958)">
<stop offset="0.0881009" stop-color="#FFE74D"/>
<stop offset="1" stop-color="#FFEF7E"/>
</radialGradient>
</defs>
</svg>
