<svg width="100" height="100" viewBox="0 0 100 100" fill="none" xmlns="http://www.w3.org/2000/svg">
<g clip-path="url(#clip0_76_1006)">
<rect width="100" height="100" rx="9.7561" fill="#0B5CEC"/>
<path d="M-4.08469 56.7633C-0.20715 59.033 1.35998 64.505 0.781461 71.5881C0.21277 78.5506 -2.40788 86.4958 -6.1308 92.8561C-9.87697 99.2562 -14.2541 104.014 -18.697 106.526C-23.0857 109.008 -27.4848 109.287 -31.592 106.883C-40.0437 101.936 -44.4315 87.2243 -37.1129 74.7212C-33.4324 68.4333 -27.2001 62.6412 -20.775 59.0925C-17.5678 57.3211 -14.3664 56.1386 -11.4628 55.7103C-8.55646 55.2817 -6.03976 55.619 -4.08469 56.7633Z" fill="#FFEF7E" stroke="#0B5CEC" stroke-width="2.70169"/>
<path d="M77.9973 102.825C81.4843 105.678 87.1674 105.246 93.6099 102.243C99.9437 99.2905 106.483 94.071 111.149 88.3675C115.845 82.6282 118.78 76.8676 119.584 71.8249C120.379 66.8441 119.105 62.6166 115.412 59.595C107.814 53.3782 92.4763 54.3736 83.3038 65.5842C78.6905 71.2226 75.4336 79.0841 74.3491 86.3474C73.8077 89.973 73.8172 93.3887 74.43 96.2632C75.0435 99.1402 76.2392 101.386 77.9973 102.825Z" fill="#FEE856" stroke="#0B5CEC" stroke-width="2.70169"/>
<path d="M48.9324 15.5703C52.4084 16.3397 53.5775 19.0939 53.4743 21.2784C53.4326 22.1614 53.9588 23.064 54.9028 23.3699C80.6631 31.7171 94.5244 58.061 88.5168 85.2064C82.149 113.979 53.6619 132.142 24.8892 125.774C-3.88349 119.407 -22.0465 90.9195 -15.6788 62.1468C-9.7201 35.222 13.5964 17.255 40.2283 20.1913C41.2134 20.2997 42.0624 19.6942 42.388 18.8749C43.2018 16.826 45.4389 14.7974 48.9324 15.5703Z" fill="url(#paint0_radial_76_1006)" stroke="#0B5CEC" stroke-width="2.70169"/>
<path d="M87.1733 24.5112C85.0583 29.6697 79.59 33.841 69.4153 34.2891C64.1883 34.5192 60.2319 33.6441 57.2384 32.0002C54.4254 30.4555 52.3703 28.1803 50.8937 25.3041C53.0884 20.0471 58.583 15.1592 68.5537 14.7202C78.7071 14.2732 85.6391 19.3571 87.1733 24.5112Z" fill="#8CFF9D" stroke="#0B5CEC" stroke-width="2.70169"/>
<rect x="50.5999" y="57.6447" width="4.72796" height="2.02627" rx="1.01313" transform="rotate(-14.3207 50.5999 57.6447)" fill="#0B5CEC"/>
<rect x="27.6814" y="50.2979" width="4.72796" height="2.02627" rx="1.01313" transform="rotate(42.479 27.6814 50.2979)" fill="#0B5CEC"/>
<path d="M37.7534 69.4141C37.7534 69.4141 36.4115 71.0504 35.1442 71.6123C33.877 72.1741 31.8205 71.545 31.8205 71.545" stroke="#0B5CEC" stroke-width="3.00188" stroke-linecap="round"/>
<path d="M37.7533 69.4141C37.7533 69.4141 38.186 71.4432 38.9889 72.4632C39.7918 73.4832 41.7124 73.7342 41.7124 73.7342" stroke="#0B5CEC" stroke-width="3.00188" stroke-linecap="round"/>
<g filter="url(#filter0_f_76_1006)">
<circle cx="16.5989" cy="66.8689" r="10.469" transform="rotate(12.479 16.5989 66.8689)" fill="#FFA964" fill-opacity="0.7"/>
</g>
<circle cx="26.66" cy="61.832" r="4.05253" transform="rotate(12.479 26.66 61.832)" fill="#0B5CEC"/>
<g filter="url(#filter1_f_76_1006)">
<circle cx="56.3128" cy="74.9662" r="10.469" transform="rotate(12.479 56.3128 74.9662)" fill="#FFA964" fill-opacity="0.7"/>
</g>
<circle cx="51.0604" cy="67.232" r="4.05253" transform="rotate(12.479 51.0604 67.232)" fill="#0B5CEC"/>
<path d="M17.365 61.1352C17.7257 60.9002 18.1991 60.9633 18.497 61.2741C18.9063 61.7011 18.8146 62.3999 18.3248 62.7316C17.854 63.0503 17.3145 63.4423 16.9564 63.7856C16.6455 64.0836 16.329 64.4815 16.0633 64.8479C15.7101 65.3348 14.9906 65.4136 14.5743 64.9794C14.2899 64.6827 14.2389 64.2324 14.4689 63.8918C14.7711 63.4444 15.2151 62.8358 15.6479 62.4208C16.0991 61.9883 16.8382 61.4784 17.365 61.1352Z" fill="#0B5CEC"/>
<path d="M19.3722 62.6788C19.5711 62.3418 19.9749 62.1958 20.3508 62.3045C20.9369 62.4739 21.1887 63.1669 20.9078 63.7085C20.7617 63.9903 20.63 64.2834 20.5659 64.5257C20.5157 64.7154 20.4836 64.9373 20.4636 65.1612C20.4088 65.774 19.8253 66.2417 19.2343 66.0709C18.8716 65.9661 18.6131 65.6441 18.6175 65.2666C18.622 64.8743 18.6505 64.3747 18.7495 64.0007C18.8541 63.6055 19.1383 63.0752 19.3722 62.6788Z" fill="#0B5CEC"/>
<path d="M59.2625 71.9061C59.0752 71.5185 58.6373 71.3279 58.2217 71.44C57.6505 71.5939 57.3679 72.2396 57.6158 72.7767C57.8541 73.2929 58.1134 73.9073 58.2425 74.3863C58.3546 74.8021 58.4199 75.3063 58.458 75.7573C58.5087 76.3566 59.084 76.796 59.6647 76.6394C60.0616 76.5324 60.3379 76.1733 60.317 75.7628C60.2896 75.2236 60.2241 74.4731 60.068 73.8941C59.9054 73.2907 59.5361 72.4722 59.2625 71.9061Z" fill="#0B5CEC"/>
<path d="M56.7461 72.1902C56.75 71.7989 56.4798 71.4652 56.1019 71.3639C55.5125 71.206 54.9388 71.6692 54.8994 72.278C54.8788 72.5948 54.84 72.9138 54.7697 73.1543C54.7147 73.3427 54.6274 73.5492 54.5289 73.7512C54.259 74.3041 54.5168 75.0062 55.1111 75.1654C55.4757 75.2631 55.8634 75.1211 56.0548 74.7957C56.2537 74.4574 56.4875 74.0151 56.596 73.6437C56.7107 73.2513 56.7415 72.6504 56.7461 72.1902Z" fill="#0B5CEC"/>
</g>
<defs>
<filter id="filter0_f_76_1006" x="-4.67907" y="45.5908" width="42.5561" height="42.5561" filterUnits="userSpaceOnUse" color-interpolation-filters="sRGB">
<feFlood flood-opacity="0" result="BackgroundImageFix"/>
<feBlend mode="normal" in="SourceGraphic" in2="BackgroundImageFix" result="shape"/>
<feGaussianBlur stdDeviation="5.40338" result="effect1_foregroundBlur_76_1006"/>
</filter>
<filter id="filter1_f_76_1006" x="35.0348" y="53.6881" width="42.5561" height="42.5561" filterUnits="userSpaceOnUse" color-interpolation-filters="sRGB">
<feFlood flood-opacity="0" result="BackgroundImageFix"/>
<feBlend mode="normal" in="SourceGraphic" in2="BackgroundImageFix" result="shape"/>
<feGaussianBlur stdDeviation="5.40338" result="effect1_foregroundBlur_76_1006"/>
</filter>
<radialGradient id="paint0_radial_76_1006" cx="0" cy="0" r="1" gradientUnits="userSpaceOnUse" gradientTransform="translate(59.1878 44.819) rotate(112.803) scale(89.2499 85.5531)">
<stop offset="0.0881009" stop-color="#FFE74D"/>
<stop offset="1" stop-color="#FFEF7E"/>
</radialGradient>
<clipPath id="clip0_76_1006">
<rect width="100" height="100" rx="9.7561" fill="white"/>
</clipPath>
</defs>
</svg>
