<svg width="226" height="185" viewBox="0 0 226 185" fill="none" xmlns="http://www.w3.org/2000/svg">
<ellipse cx="113.579" cy="167.283" rx="28.5" ry="6" transform="rotate(-0.371816 113.579 167.283)" fill="#B1E7FF"/>
<ellipse cx="139.585" cy="168.114" rx="23.5" ry="6" transform="rotate(-0.371816 139.585 168.114)" fill="#B1E7FF"/>
<path d="M66.046 90.04C70.8204 92.317 72.8965 98.2298 72.5828 106.27C72.274 114.185 69.6421 123.49 65.8615 131.417C62.0519 139.405 57.6771 145.833 52.9897 149.594C48.3817 153.291 43.6082 154.335 38.5958 151.944C28.1262 146.951 21.476 130.028 28.8623 114.539C32.577 106.75 39.3531 99.2899 46.5812 94.4588C50.1893 92.0473 53.8499 90.3315 57.234 89.5356C60.6209 88.7391 63.6242 88.8852 66.046 90.04Z" fill="#FFEF7E" stroke="#0B5CEC" stroke-width="3.2"/>
<path d="M166.577 99.7327C161.88 97.4888 160.236 91.6692 161.074 83.5612C161.895 75.6111 165.057 66.2626 168.867 58.2859C172.696 50.2699 177.071 43.2415 181.788 38.9013C184.136 36.7408 186.497 35.3132 188.846 34.709C191.159 34.1141 193.553 34.2916 196.074 35.4957C206.655 40.5492 213.959 56.7166 206.609 72.1048C202.895 79.8806 195.414 88.1411 187.436 93.778C183.456 96.5904 179.423 98.6982 175.756 99.7779C172.066 100.864 168.934 100.858 166.577 99.7327Z" fill="#FFEF7E" stroke="#0B5CEC" stroke-width="3.2"/>
<path d="M99.5934 134.074C102.497 133.762 105.449 135.1 107.877 137.815C110.303 140.527 112.102 144.523 112.602 149.169C113.102 153.816 112.193 158.103 110.4 161.269C108.605 164.438 106.005 166.374 103.102 166.686C96.2454 167.424 88.5958 161.065 87.6055 151.858C87.1217 147.361 88.5574 143.056 90.951 139.78C93.3658 136.475 96.6169 134.394 99.5934 134.074Z" fill="#FFEF7E" stroke="#0B5CEC" stroke-width="3.2"/>
<path d="M136.656 128.862C133.925 129.156 131.451 131.046 129.737 134.213C128.028 137.372 127.171 141.662 127.672 146.323C128.174 150.984 129.923 154.994 132.266 157.718C134.614 160.447 137.433 161.768 140.164 161.474C147.391 160.697 152.538 153.088 151.534 143.756C151.049 139.239 148.796 135.323 145.874 132.622C142.921 129.894 139.464 128.56 136.656 128.862Z" fill="#FFEF7E" stroke="#0B5CEC" stroke-width="3.2"/>
<path d="M104.983 18.6255C109.175 18.1748 111.529 20.8239 112.239 23.3148C112.526 24.3217 113.457 25.1364 114.633 25.1228C146.704 24.7506 172.225 49.0783 175.747 81.8198C179.48 116.524 154.373 147.684 119.669 151.417C84.9649 155.15 53.805 130.043 50.0719 95.3388C46.5785 62.8636 65.9554 33.8788 96.9588 27.1036C98.106 26.8529 98.8301 25.8522 98.8856 24.8091C99.0244 22.2016 100.769 19.0787 104.983 18.6255Z" fill="url(#paint0_radial_33_258)" stroke="#0B5CEC" stroke-width="3.2"/>
<path d="M154.516 15.8838C153.813 22.4503 148.97 29.0004 137.543 32.8689C131.673 34.8559 126.884 35.1672 122.936 34.2854C119.227 33.4567 116.138 31.5462 113.509 28.7618C114.271 22.0576 118.907 14.6842 130.103 10.8937C141.505 7.0339 151.069 10.5278 154.516 15.8838Z" fill="#AFFF62" stroke="#0B5CEC" stroke-width="3.2"/>
<rect x="122.381" y="63.9634" width="5.6" height="2.4" rx="1.2" transform="rotate(-38.9519 122.381 63.9634)" fill="#0B5CEC"/>
<rect x="93.8905" y="65.6167" width="5.6" height="2.4" rx="1.2" transform="rotate(21.0481 93.8905 65.6167)" fill="#0B5CEC"/>
<g filter="url(#filter0_f_33_258)">
<circle cx="88.6047" cy="87.1684" r="13.9333" transform="rotate(-8.95185 88.6047 87.1684)" fill="#FFA964" fill-opacity="0.7"/>
</g>
<circle cx="97.7563" cy="78.7754" r="4.8" transform="rotate(-8.95185 97.7563 78.7754)" fill="#0B5CEC"/>
<g filter="url(#filter1_f_33_258)">
<path d="M149.326 77.1985C150.489 84.5816 145.447 91.5097 138.064 92.6727C130.68 93.8357 123.752 88.7933 122.589 81.4101C121.426 74.027 126.469 67.0989 133.852 65.9359C141.235 64.7729 148.163 69.8153 149.326 77.1985Z" fill="#FFA964" fill-opacity="0.7"/>
</g>
<path d="M130.823 70.577C130.823 70.577 128.878 70.7028 126.305 72.14C124.501 73.1473 123.183 74.529 122.623 75.1753C122.523 75.2907 122.632 75.464 122.782 75.4345C123.587 75.2759 125.402 75.0054 127.761 75.1843C130.296 75.4211 131.184 76.1653 131.184 76.1653" stroke="#0B5CEC" stroke-width="2.4" stroke-linecap="round"/>
<path d="M87.7352 83.7829C87.9835 83.3831 88.4816 83.2263 88.9206 83.396C89.5238 83.6292 89.7567 84.3638 89.4253 84.9191C89.1068 85.4529 88.7541 86.0911 88.5586 86.5969C88.3888 87.0361 88.2596 87.5768 88.1663 88.0627C88.0421 88.7086 87.3661 89.1199 86.7527 88.8828C86.3335 88.7208 86.0744 88.2985 86.1444 87.8546C86.2364 87.2715 86.394 86.4631 86.6304 85.8516C86.8768 85.2142 87.3726 84.3669 87.7352 83.7829Z" fill="#0B5CEC"/>
<path d="M90.4382 84.3816C90.479 83.9557 90.8113 83.6241 91.2338 83.5575C91.8928 83.4537 92.4631 84.0233 92.436 84.6898C92.4218 85.0367 92.4272 85.3879 92.476 85.6576C92.5141 85.8686 92.5852 86.1033 92.6691 86.3343C92.8987 86.9665 92.5376 87.7001 91.8731 87.8048C91.4654 87.869 91.0602 87.6699 90.8897 87.2941C90.7124 86.9034 90.5092 86.3955 90.4339 85.9792C90.3545 85.5394 90.3902 84.8825 90.4382 84.3816Z" fill="#0B5CEC"/>
<path d="M137.837 75.8907C137.478 75.5865 136.956 75.5905 136.59 75.8869C136.088 76.2943 136.092 77.0649 136.578 77.4915C137.045 77.9015 137.577 78.4003 137.919 78.8216C138.215 79.1873 138.504 79.6621 138.742 80.0958C139.059 80.6722 139.829 80.8558 140.34 80.4416C140.689 80.1585 140.806 79.6771 140.602 79.2762C140.336 78.7496 139.937 78.0288 139.524 77.5196C139.094 76.9888 138.362 76.3349 137.837 75.8907Z" fill="#0B5CEC"/>
<path d="M135.449 77.2913C135.279 76.8987 134.861 76.6852 134.438 76.7518C133.78 76.8555 133.412 77.5729 133.643 78.1988C133.763 78.5245 133.866 78.8604 133.902 79.132C133.931 79.3446 133.935 79.5897 133.926 79.8353C133.902 80.5075 134.471 81.0945 135.136 80.9899C135.544 80.9256 135.868 80.6116 135.915 80.2016C135.963 79.7753 136 79.2295 135.944 78.8103C135.884 78.3673 135.649 77.7533 135.449 77.2913Z" fill="#0B5CEC"/>
<path d="M114.067 82.2825C114.067 82.2825 113.296 84.6674 112.142 85.8353C110.988 87.0032 108.448 87.1996 108.448 87.1996" stroke="#0B5CEC" stroke-width="3.55556" stroke-linecap="round"/>
<path d="M114.067 82.2825C114.067 82.2825 115.422 84.3324 116.749 85.1095C118.076 85.8867 120.302 85.3323 120.302 85.3323" stroke="#0B5CEC" stroke-width="3.55556" stroke-linecap="round"/>
<defs>
<filter id="filter0_f_33_258" x="61.8695" y="60.4331" width="53.4706" height="53.4706" filterUnits="userSpaceOnUse" color-interpolation-filters="sRGB">
<feFlood flood-opacity="0" result="BackgroundImageFix"/>
<feBlend mode="normal" in="SourceGraphic" in2="BackgroundImageFix" result="shape"/>
<feGaussianBlur stdDeviation="6.4" result="effect1_foregroundBlur_33_258"/>
</filter>
<filter id="filter1_f_33_258" x="109.623" y="52.9691" width="52.6704" height="52.6704" filterUnits="userSpaceOnUse" color-interpolation-filters="sRGB">
<feFlood flood-opacity="0" result="BackgroundImageFix"/>
<feBlend mode="normal" in="SourceGraphic" in2="BackgroundImageFix" result="shape"/>
<feGaussianBlur stdDeviation="6.4" result="effect1_foregroundBlur_33_258"/>
</filter>
<radialGradient id="paint0_radial_33_258" cx="0" cy="0" r="1" gradientUnits="userSpaceOnUse" gradientTransform="translate(127.554 47.5779) rotate(94.1844) scale(105.712 101.333)">
<stop offset="0.0881009" stop-color="#FFE74D"/>
<stop offset="1" stop-color="#FFEF7E"/>
</radialGradient>
</defs>
</svg>
