<svg width="30" height="20" viewBox="0 0 30 20" fill="none" xmlns="http://www.w3.org/2000/svg">
<g clip-path="url(#clip0_28_128)">
<mask id="mask0_28_128" style="mask-type:luminance" maskUnits="userSpaceOnUse" x="0" y="0" width="30" height="20">
<rect width="30" height="20" fill="white"/>
</mask>
<g mask="url(#mask0_28_128)">
<path fill-rule="evenodd" clip-rule="evenodd" d="M20.625 0H30V20H20.625V0Z" fill="#F50100"/>
<path fill-rule="evenodd" clip-rule="evenodd" d="M0 0H11.25V20H0V0Z" fill="#2E42A5"/>
<path fill-rule="evenodd" clip-rule="evenodd" d="M9.375 0H20.625V20H9.375V0Z" fill="#F7FCFF"/>
</g>
<mask id="mask1_28_128" style="mask-type:luminance" maskUnits="userSpaceOnUse" x="0" y="0" width="30" height="21">
<rect width="30" height="21" fill="white"/>
</mask>
<g mask="url(#mask1_28_128)">
<path fill-rule="evenodd" clip-rule="evenodd" d="M0 0V21H30V0H0Z" fill="#FFB400"/>
<mask id="mask2_28_128" style="mask-type:luminance" maskUnits="userSpaceOnUse" x="0" y="0" width="30" height="21">
<path fill-rule="evenodd" clip-rule="evenodd" d="M0 0V21H30V0H0Z" fill="white"/>
</mask>
<g mask="url(#mask2_28_128)">
<path fill-rule="evenodd" clip-rule="evenodd" d="M0 0V5.25H30V0H0Z" fill="#C51918"/>
<path fill-rule="evenodd" clip-rule="evenodd" d="M0 15.75V21H30V15.75H0Z" fill="#C51918"/>
<rect x="4.695" y="8.98798" width="1.05" height="5.096" fill="#F1F9FF"/>
<path d="M6.16547 8.59601H5.85004V8.98761H4.59027V8.59601H4.27484V8.10577H6.16547V8.59601Z" fill="#C88A02"/>
<path fill-rule="evenodd" clip-rule="evenodd" d="M5.85 14.378H6.165V14.868H4.275V14.378H4.59V13.986H5.85V14.378Z" fill="#C88A02"/>
<path fill-rule="evenodd" clip-rule="evenodd" d="M5.22 8.20398C5.4485 8.20398 5.47172 8.12367 5.60653 8.00373C5.71121 7.9106 5.955 7.79509 5.955 7.66498C5.955 7.3673 5.62593 7.12598 5.22 7.12598C4.81407 7.12598 4.485 7.3673 4.485 7.66498C4.485 7.80994 4.65289 7.90686 4.77983 8.00373C4.91357 8.10579 5.01174 8.20398 5.22 8.20398Z" fill="#AD1619"/>
<path fill-rule="evenodd" clip-rule="evenodd" d="M4.27499 14.868H6.16499V15.652C6.16499 15.652 5.92874 15.554 5.69249 15.554C5.45624 15.554 5.21999 15.652 5.21999 15.652C5.21999 15.652 4.98374 15.554 4.74749 15.554C4.51124 15.554 4.27499 15.652 4.27499 15.652V14.868Z" fill="#005BBF"/>
<mask id="mask3_28_128" style="mask-type:luminance" maskUnits="userSpaceOnUse" x="4" y="14" width="3" height="2">
<path fill-rule="evenodd" clip-rule="evenodd" d="M4.27499 14.868H6.16499V15.652C6.16499 15.652 5.92874 15.554 5.69249 15.554C5.45624 15.554 5.21999 15.652 5.21999 15.652C5.21999 15.652 4.98374 15.554 4.74749 15.554C4.51124 15.554 4.27499 15.652 4.27499 15.652V14.868Z" fill="white"/>
</mask>
<g mask="url(#mask3_28_128)">
<path d="M4.25791 15.4979L4.21666 15.404C4.38689 15.3333 4.55773 15.2979 4.72882 15.2979C4.83936 15.2979 4.89708 15.3122 4.99521 15.353C5.08141 15.3888 5.12609 15.3999 5.22035 15.3999C5.31462 15.3999 5.3593 15.3888 5.44549 15.353C5.54362 15.3122 5.60135 15.2979 5.71189 15.2979C5.88298 15.2979 6.05382 15.3333 6.22405 15.404L6.1828 15.4979C6.02534 15.4325 5.86848 15.3999 5.71189 15.3999C5.61762 15.3999 5.57294 15.4111 5.48675 15.4469C5.38862 15.4876 5.33089 15.502 5.22035 15.502C5.10981 15.502 5.05209 15.4876 4.95396 15.4469C4.86777 15.4111 4.82309 15.3999 4.72882 15.3999C4.57222 15.3999 4.41537 15.4325 4.25791 15.4979Z" fill="white"/>
<path d="M4.25791 15.204L4.21666 15.1101C4.38689 15.0394 4.55773 15.0039 4.72882 15.0039C4.83936 15.0039 4.89708 15.0183 4.99521 15.0591C5.08141 15.0949 5.12609 15.106 5.22035 15.106C5.31462 15.106 5.3593 15.0949 5.44549 15.0591C5.54362 15.0183 5.60135 15.0039 5.71189 15.0039C5.88298 15.0039 6.05382 15.0394 6.22405 15.1101L6.1828 15.204C6.02534 15.1386 5.86848 15.106 5.71189 15.106C5.61762 15.106 5.57294 15.1171 5.48675 15.1529C5.38862 15.1937 5.33089 15.2081 5.22035 15.2081C5.10981 15.2081 5.05209 15.1937 4.95396 15.1529C4.86777 15.1171 4.82309 15.106 4.72882 15.106C4.57222 15.106 4.41537 15.1386 4.25791 15.204Z" fill="white"/>
</g>
<rect x="14.985" y="8.98798" width="1.05" height="5.096" fill="#F1F9FF"/>
<path d="M16.4549 8.59601H16.1395V8.98761H14.8798V8.59601H14.5653V8.10577H16.4549V8.59601Z" fill="#C88A02"/>
<path fill-rule="evenodd" clip-rule="evenodd" d="M16.14 14.378H16.455V14.868H14.565V14.378H14.88V13.986H16.14V14.378Z" fill="#C88A02"/>
<path fill-rule="evenodd" clip-rule="evenodd" d="M15.51 8.20398C15.7385 8.20398 15.7617 8.12367 15.8965 8.00373C16.0012 7.9106 16.245 7.79509 16.245 7.66498C16.245 7.3673 15.9159 7.12598 15.51 7.12598C15.1041 7.12598 14.775 7.3673 14.775 7.66498C14.775 7.80994 14.9429 7.90686 15.0698 8.00373C15.2036 8.10579 15.3017 8.20398 15.51 8.20398Z" fill="#AD1619"/>
<path fill-rule="evenodd" clip-rule="evenodd" d="M14.565 14.868H16.455V15.652C16.455 15.652 16.2188 15.554 15.9825 15.554C15.7463 15.554 15.51 15.652 15.51 15.652C15.51 15.652 15.2738 15.554 15.0375 15.554C14.8013 15.554 14.565 15.652 14.565 15.652V14.868Z" fill="#005BBF"/>
<mask id="mask4_28_128" style="mask-type:luminance" maskUnits="userSpaceOnUse" x="14" y="14" width="3" height="2">
<path fill-rule="evenodd" clip-rule="evenodd" d="M14.565 14.868H16.455V15.652C16.455 15.652 16.2188 15.554 15.9825 15.554C15.7463 15.554 15.51 15.652 15.51 15.652C15.51 15.652 15.2738 15.554 15.0375 15.554C14.8013 15.554 14.565 15.652 14.565 15.652V14.868Z" fill="white"/>
</mask>
<g mask="url(#mask4_28_128)">
<path d="M14.5479 15.4979L14.5067 15.404C14.6769 15.3333 14.8477 15.2979 15.0188 15.2979C15.1294 15.2979 15.1871 15.3122 15.2852 15.353C15.3714 15.3888 15.4161 15.3999 15.5104 15.3999C15.6046 15.3999 15.6493 15.3888 15.7355 15.353C15.8336 15.3122 15.8913 15.2979 16.0019 15.2979C16.173 15.2979 16.3438 15.3333 16.514 15.404L16.4728 15.4979C16.3153 15.4325 16.1585 15.3999 16.0019 15.3999C15.9076 15.3999 15.8629 15.4111 15.7767 15.4469C15.6786 15.4876 15.6209 15.502 15.5104 15.502C15.3998 15.502 15.3421 15.4876 15.244 15.4469C15.1578 15.4111 15.1131 15.3999 15.0188 15.3999C14.8622 15.3999 14.7054 15.4325 14.5479 15.4979Z" fill="white"/>
<path d="M14.5479 15.204L14.5067 15.1101C14.6769 15.0394 14.8477 15.0039 15.0188 15.0039C15.1294 15.0039 15.1871 15.0183 15.2852 15.0591C15.3714 15.0949 15.4161 15.106 15.5104 15.106C15.6046 15.106 15.6493 15.0949 15.7355 15.0591C15.8336 15.0183 15.8913 15.0039 16.0019 15.0039C16.173 15.0039 16.3438 15.0394 16.514 15.1101L16.4728 15.204C16.3153 15.1386 16.1585 15.106 16.0019 15.106C15.9076 15.106 15.8629 15.1171 15.7767 15.1529C15.6786 15.1937 15.6209 15.2081 15.5104 15.2081C15.3998 15.2081 15.3421 15.1937 15.244 15.1529C15.1578 15.1171 15.1131 15.106 15.0188 15.106C14.8622 15.106 14.7054 15.1386 14.5479 15.204Z" fill="white"/>
</g>
<path d="M4.11402 10.3878C4.81729 9.93586 6.69984 9.89499 7.52613 10.2931L7.14039 10.9904C6.73484 10.795 5.81317 10.7583 5.16773 10.8585C5.2659 10.8745 5.37638 10.8912 5.49976 10.9093C5.5762 10.9205 5.84293 10.9584 5.86793 10.962C6.12569 10.9994 6.30204 11.0472 6.43238 11.13C6.69844 11.2991 6.73748 11.6035 6.54762 11.8282C6.46751 11.923 6.36325 11.9944 6.20484 12.0802C6.15397 12.1077 6.09867 12.1354 6.02515 12.172C6.01011 12.1795 5.88181 12.2431 5.84449 12.2618C5.69319 12.3377 5.59437 12.3932 5.52027 12.4435C5.40419 12.5223 5.28432 12.5861 5.14918 12.6466C5.07638 12.6792 4.86925 12.7637 4.8689 12.7638C4.86486 12.7655 4.86095 12.7671 4.85719 12.7687C4.92994 12.8607 4.97139 12.9733 4.97144 13.1036C4.97144 13.3106 4.86571 13.5057 4.67652 13.7198L4.03101 13.2238L3.96949 13.2062L3.93531 12.9552C3.87193 12.492 4.0843 12.2354 4.52125 12.0499C4.53236 12.0452 4.72897 11.965 4.7859 11.9396C4.87819 11.8983 4.95511 11.8569 5.02613 11.8087C5.09605 11.7613 5.17099 11.7161 5.26148 11.6671C4.72064 11.586 4.42809 11.5268 4.20387 11.4366C3.66728 11.2208 3.59824 10.7193 4.11402 10.3878ZM13.1072 10.2931C13.9335 9.89503 15.8161 9.93583 16.5193 10.3878C17.035 10.7193 16.9659 11.2208 16.4295 11.4366C16.2052 11.5268 15.9126 11.586 15.3718 11.6671C15.4624 11.7161 15.5372 11.7613 15.6072 11.8087C15.6781 11.8569 15.7543 11.8983 15.8464 11.9396C15.9028 11.9648 16.1009 12.0452 16.1121 12.0499C16.549 12.2354 16.7614 12.4921 16.698 12.9552L16.6628 13.2062L16.6013 13.2238L15.9568 13.7198C15.7676 13.5057 15.6619 13.3106 15.6619 13.1036C15.6619 12.9733 15.7034 12.8607 15.7761 12.7687L15.4832 12.6466C15.3482 12.5862 15.229 12.5222 15.113 12.4435C15.039 12.3932 14.9401 12.3377 14.7888 12.2618C14.7515 12.2431 14.6232 12.1795 14.6082 12.172C14.5346 12.1354 14.4794 12.1078 14.4285 12.0802C14.27 11.9944 14.1649 11.9231 14.0847 11.8282C13.8952 11.6036 13.935 11.299 14.2009 11.13C14.3312 11.0473 14.5069 10.9994 14.7644 10.962C14.7861 10.9589 15.0567 10.9206 15.1336 10.9093C15.2569 10.8912 15.3674 10.8745 15.4656 10.8585C14.8202 10.7583 13.8985 10.7951 13.4929 10.9904L13.1072 10.2931ZM4.13453 13.0753L4.13551 13.0734V13.0714C4.13526 13.0722 4.13514 13.0738 4.13453 13.0753Z" fill="#AD1619"/>
<path d="M5.55315 10.85L5.86307 10.9098V11.341C5.53298 11.5868 4.695 12.0011 4.695 12.0011V10.85H5.55315Z" fill="#F1F9FF"/>
<path d="M15.2949 10.85L14.985 10.9098V11.341C15.3151 11.5868 16.1531 12.0011 16.1531 12.0011V10.85H15.2949Z" fill="#F1F9FF"/>
<path d="M8.68345 5.6189C8.70696 5.60949 9.57452 5.26586 10.4354 5.34448L10.4344 5.34644C11.0151 5.29396 11.5892 5.38477 12.1561 5.6189C12.747 5.61896 13.3124 5.80017 13.8524 6.16187V6.30542L12.7938 7.29761C12.5821 7.84544 12.204 7.87432 11.91 7.96558C11.8121 7.99539 10.4603 8.03027 10.4315 8.03101V8.02808C8.34335 8.25287 8.04575 7.29761 8.04575 7.29761L6.98618 6.30542V6.16187C6.98618 6.16187 7.79685 5.6189 8.68345 5.6189Z" fill="#AD1619"/>
<path d="M12.0647 6.5639C12.0879 6.80751 12.1595 6.92165 12.2648 6.93793C12.4084 6.95972 12.5177 6.94989 12.5939 6.91156L12.7492 6.83344V6.96625C12.7979 6.97108 12.8819 6.96211 12.9963 6.9389L13.0285 7.08148L13.8029 6.40179L13.8752 6.47406L12.9123 7.31976C12.7719 7.56117 12.7004 7.72036 12.7004 7.78656C12.7003 7.88754 12.4188 7.94764 11.8693 8.00922C11.4387 8.05747 10.9305 8.08837 10.5148 8.0932V8.09515C10.4975 8.09515 10.4799 8.09429 10.4621 8.09418C10.4445 8.09428 10.4266 8.09515 10.4094 8.09515V8.0932C9.99379 8.08835 9.48533 8.05745 9.05489 8.00922C8.50569 7.94766 8.22397 7.88752 8.22383 7.78656C8.22383 7.77205 8.21987 7.75325 8.21309 7.72992C8.16152 7.66455 8.12285 7.56477 8.09785 7.47211C8.07309 7.42572 8.04492 7.37482 8.01289 7.31976L7.79903 7.13129C7.79747 7.13097 7.79571 7.1316 7.79414 7.13129V7.12738L7.05 6.47406L7.12129 6.40179L7.82051 7.01605L7.83907 6.9389C7.95312 6.96204 8.03644 6.97102 8.08516 6.96625V6.83344L8.24043 6.91156C8.31665 6.95001 8.42583 6.95975 8.56953 6.93793C8.67511 6.92186 8.74643 6.80778 8.76973 6.5639L8.8166 6.07172L8.97481 6.5434C9.04618 6.75687 9.15478 6.85096 9.30977 6.85101C9.46122 6.85101 9.5218 6.79902 9.52852 6.6684L9.54805 6.29828L9.72774 6.62933C9.79237 6.74833 9.88137 6.80214 10.008 6.80219C10.1894 6.80219 10.3107 6.66129 10.3107 6.43988H10.5236C10.5236 6.66121 10.6451 6.80207 10.8264 6.80219C10.9532 6.80219 11.043 6.74854 11.1076 6.62933L11.2863 6.29828L11.3059 6.6684C11.3126 6.79895 11.3733 6.85096 11.5246 6.85101C11.6797 6.85101 11.7892 6.75695 11.8605 6.5434L12.0178 6.07172L12.0647 6.5639ZM10.4045 7.57855C10.1288 7.59493 8.61505 7.68845 8.38594 7.78851C8.38228 7.79011 8.37781 7.78919 8.37422 7.79047C8.40821 7.8022 8.45458 7.81614 8.51289 7.82855C8.64789 7.85729 8.83993 7.88604 9.06758 7.91156C9.51239 7.96141 10.0416 7.99295 10.4621 7.99554C10.8826 7.99298 11.4117 7.96141 11.8566 7.91156C12.0845 7.88603 12.2772 7.85731 12.4123 7.82855C12.4809 7.81394 12.534 7.80012 12.5686 7.78656C12.5808 7.78177 12.5898 7.77662 12.5959 7.77289C12.5972 7.75549 12.6025 7.73589 12.6086 7.71332C12.5608 7.78198 12.5028 7.82232 12.425 7.78851C12.1954 7.68823 10.6753 7.59463 10.4045 7.57855ZM11.9201 6.86566C11.8365 6.96512 11.729 7.02274 11.6008 7.03949C12.2684 7.12699 12.7408 7.25006 12.757 7.25433C12.7566 7.25767 12.7449 7.34976 12.717 7.45746C12.7469 7.40014 12.7824 7.33641 12.8234 7.26605L12.8342 7.25336L12.9572 7.14398C12.7841 7.17278 12.6591 7.17278 12.593 7.1225C12.4901 7.15034 12.3693 7.15315 12.2316 7.13226C12.0842 7.10988 11.9819 7.01747 11.9201 6.86566ZM8.91524 6.86566C8.85352 7.01735 8.75093 7.10978 8.60371 7.13226C8.46578 7.15321 8.34443 7.15044 8.24141 7.1225C8.18951 7.16185 8.10157 7.16898 7.98262 7.15765L8.08321 7.24652C8.19829 7.21764 8.6352 7.11363 9.21992 7.03754C9.09795 7.01834 8.9958 6.96146 8.91524 6.86566ZM11.1594 6.88617C11.1063 6.92989 11.0445 6.9587 10.9768 6.97699C11.0873 6.98474 11.1954 6.99262 11.3 7.00336C11.2408 6.97628 11.1935 6.93724 11.1594 6.88617ZM9.67598 6.88617C9.64281 6.93596 9.59633 6.97338 9.53926 7.00043C9.64029 6.99034 9.74445 6.98329 9.85078 6.97601C9.78587 6.95752 9.72716 6.92831 9.67598 6.88617ZM10.4172 6.78851C10.3644 6.86494 10.2941 6.92401 10.2072 6.95941C10.259 6.9579 10.3111 6.95605 10.3635 6.95551V6.95355C10.3775 6.95355 10.3915 6.95445 10.4055 6.95453C10.4195 6.95446 10.4334 6.95355 10.4475 6.95355V6.95551C10.5084 6.95614 10.569 6.95846 10.6291 6.96039C10.5414 6.92504 10.4704 6.86553 10.4172 6.78851Z" fill="#C88A02"/>
<path fill-rule="evenodd" clip-rule="evenodd" d="M10.4177 4.6787C10.5917 4.6787 10.7327 4.54707 10.7327 4.3847C10.7327 4.22233 10.5917 4.0907 10.4177 4.0907C10.2437 4.0907 10.1027 4.22233 10.1027 4.3847C10.1027 4.54707 10.2437 4.6787 10.4177 4.6787Z" fill="#005BBF"/>
<path d="M7.29816 6.35626C7.38129 6.33254 7.48326 6.41843 7.5257 6.54767C7.53652 6.58067 7.54187 6.61361 7.54328 6.64435C7.57211 6.61275 7.60958 6.58176 7.65656 6.55841C7.78457 6.49489 7.92139 6.50138 7.96223 6.57306C8.0028 6.64464 7.93256 6.75369 7.805 6.8172C7.677 6.88072 7.5392 6.87423 7.49836 6.80255C7.49735 6.80076 7.49728 6.79852 7.49641 6.79669C7.4837 6.80953 7.46975 6.82 7.45246 6.82501C7.36928 6.84875 7.26731 6.763 7.22492 6.63361C7.18267 6.50443 7.21524 6.3802 7.29816 6.35626ZM13.4622 6.32697C13.5454 6.3507 13.5788 6.47491 13.5364 6.60431C13.494 6.73348 13.392 6.81845 13.3089 6.79474C13.2913 6.78968 13.2768 6.77956 13.264 6.76642C13.2631 6.76836 13.2631 6.77136 13.262 6.77325C13.2209 6.8445 13.0841 6.85129 12.9564 6.7879C12.8284 6.72438 12.7583 6.61446 12.7991 6.54279C12.8401 6.47124 12.9769 6.46465 13.1048 6.52814C13.1515 6.55135 13.1884 6.58269 13.2171 6.61407C13.2185 6.5834 13.2239 6.55032 13.2347 6.5174C13.2771 6.38824 13.3791 6.30339 13.4622 6.32697ZM8.7425 5.95197C8.8278 5.93659 8.91888 6.03126 8.9466 6.16388C8.95665 6.21211 8.9535 6.25815 8.94563 6.29865C8.97812 6.29053 9.0142 6.28598 9.05207 6.28595C9.19705 6.28595 9.31477 6.35222 9.31477 6.43341C9.3147 6.51457 9.19701 6.5799 9.05207 6.5799C8.90733 6.57977 8.79042 6.51449 8.79035 6.43341C8.79035 6.43147 8.79022 6.42948 8.79035 6.42755H8.7884C8.78854 6.42951 8.79035 6.43144 8.79035 6.43341C8.79029 6.51454 8.67252 6.57985 8.52766 6.5799C8.38272 6.5799 8.26503 6.51457 8.26496 6.43341C8.26496 6.35222 8.38268 6.28595 8.52766 6.28595C8.58056 6.28597 8.62903 6.29723 8.67023 6.31232C8.65625 6.28484 8.645 6.25395 8.63801 6.22052C8.61035 6.0877 8.65711 5.96746 8.7425 5.95197ZM11.9818 5.91583C12.0684 5.91186 12.1449 6.0174 12.1527 6.15216C12.1554 6.20134 12.1451 6.24681 12.1312 6.28595C12.1646 6.28214 12.201 6.28201 12.2386 6.28693C12.3819 6.30572 12.4885 6.38636 12.4769 6.46661C12.4648 6.54701 12.3382 6.59775 12.1946 6.57892C12.0514 6.56009 11.9447 6.47945 11.9564 6.39923C11.9566 6.39743 11.957 6.39514 11.9573 6.39337L11.9564 6.3924C11.9562 6.39451 11.9567 6.39711 11.9564 6.39923C11.9439 6.47932 11.8183 6.52928 11.6751 6.51056C11.5317 6.49175 11.425 6.41119 11.4368 6.33087C11.4489 6.25048 11.5755 6.20071 11.7191 6.21954C11.7717 6.22649 11.8181 6.24398 11.8568 6.26447C11.8468 6.23505 11.8401 6.20236 11.8382 6.16779C11.8307 6.03273 11.8949 5.92008 11.9818 5.91583ZM10.3177 5.85333C10.403 5.83822 10.4942 5.93361 10.5218 6.06622C10.5318 6.11454 10.5287 6.16045 10.5208 6.20099C10.5533 6.19288 10.5894 6.18831 10.6273 6.18829C10.7722 6.18829 10.89 6.25457 10.89 6.33575C10.8896 6.41675 10.772 6.48224 10.6273 6.48224C10.4826 6.48217 10.365 6.41671 10.3646 6.33575C10.3646 6.33392 10.3654 6.33171 10.3655 6.3299L10.3636 6.32892C10.3638 6.33108 10.3646 6.33357 10.3646 6.33575C10.3642 6.41668 10.2474 6.48213 10.1029 6.48224C9.95812 6.48224 9.84055 6.41675 9.84016 6.33575C9.84016 6.25457 9.95788 6.18829 10.1029 6.18829C10.1558 6.18833 10.2042 6.19952 10.2454 6.21466C10.2313 6.187 10.2202 6.1556 10.2132 6.12189C10.1856 5.98914 10.2324 5.86882 10.3177 5.85333Z" fill="#C88A02"/>
<path d="M10.5185 3.69574H10.6621V3.89984H10.5185V4.30804H10.6621V4.51312H10.1552V4.30804H10.2998V3.89984H10.1552V3.69574H10.2998V3.56683H10.5185V3.69574Z" fill="#C88A02"/>
<rect x="10.26" y="4.67603" width="0.42" height="1.274" fill="#C88A02"/>
<path d="M8.5693 4.88937L8.56746 4.98736C7.63643 4.97219 7.10238 5.099 6.96681 5.35174C6.82666 5.61304 6.85272 5.93068 7.04911 6.30801L6.95466 6.35083C6.74513 5.94824 6.71651 5.59948 6.87292 5.30787C7.03392 5.00771 7.59888 4.87356 8.5693 4.88937Z" fill="white"/>
<path d="M8.74943 5.75839L8.6956 5.84253C8.49285 5.72954 8.39137 5.53671 8.39137 5.27097C8.39137 4.88905 8.60216 4.66509 9.06843 4.51183C9.36602 4.41401 9.77252 4.45412 10.2891 4.62892L10.2533 4.72106C9.75741 4.55325 9.37369 4.51539 9.10331 4.60426C8.67564 4.74484 8.49637 4.93531 8.49637 5.27097C8.49637 5.50417 8.58066 5.66434 8.74943 5.75839Z" fill="white"/>
<path d="M7.18139 6.15772L6.98325 6.22267C6.77768 5.67637 6.83639 5.30536 7.18766 5.14532C7.49719 5.00429 7.9483 4.9469 8.54324 4.9694L8.53473 5.16524C7.97145 5.14394 7.55239 5.19725 7.27978 5.32145C7.04893 5.42663 7.0067 5.69349 7.18139 6.15772Z" fill="#C88A02"/>
<path d="M9.49621 4.75887C9.01607 4.75887 8.8189 4.86801 8.70626 5.19026C8.63448 5.39562 8.7041 5.5709 8.92984 5.73451L8.80104 5.88932C8.50878 5.6775 8.40574 5.41807 8.50662 5.12947C8.65017 4.71879 8.93185 4.56287 9.49621 4.56287C9.8661 4.56287 10.1542 4.65357 10.3549 4.83816L10.3862 4.86694V5.81191H10.1762V4.95072C10.0195 4.82369 9.79439 4.75887 9.49621 4.75887Z" fill="#C88A02"/>
<path d="M12.2334 4.98739L12.2353 5.08538C13.1663 5.07021 13.7004 5.19702 13.8359 5.44976C13.9761 5.71106 13.95 6.0287 13.7536 6.40603L13.8481 6.44885C14.0576 6.04626 14.0862 5.6975 13.9298 5.40589C13.7688 5.10573 13.2039 4.97158 12.2334 4.98739Z" fill="white"/>
<path d="M11.9047 5.77878L11.9585 5.86292C12.1612 5.74993 12.2627 5.5571 12.2627 5.29136C12.2627 4.90944 12.0519 4.68548 11.5857 4.53222C11.2881 4.4344 10.8816 4.4745 10.365 4.64931L10.4008 4.74144C10.8967 4.57363 11.2804 4.53578 11.5508 4.62465C11.9785 4.76523 12.1577 4.95569 12.1577 5.29136C12.1577 5.52456 12.0734 5.68472 11.9047 5.77878Z" fill="white"/>
<path d="M13.6868 6.25575L13.8849 6.3207C14.0905 5.77439 14.0318 5.40338 13.6805 5.24334C13.371 5.10232 12.9199 5.04492 12.3249 5.06743L12.3334 5.26327C12.8967 5.24196 13.3158 5.29528 13.5884 5.41947C13.8192 5.52465 13.8615 5.79152 13.6868 6.25575Z" fill="#C88A02"/>
<path d="M11.36 4.774C11.8401 4.774 12.0373 4.88315 12.1499 5.2054C12.2217 5.41076 12.1521 5.58604 11.9263 5.74965L12.0551 5.90445C12.3474 5.69263 12.4504 5.43321 12.3495 5.14461C12.206 4.73393 11.9243 4.578 11.36 4.578C10.9901 4.578 10.7019 4.6687 10.5013 4.85329L10.47 4.88208V5.82705H10.68V4.96585C10.8367 4.83882 11.0618 4.774 11.36 4.774Z" fill="#C88A02"/>
<path opacity="0.3" fill-rule="evenodd" clip-rule="evenodd" d="M7.005 8.10596H13.83V13.8292C13.83 13.8292 13.323 15.75 10.4175 15.75C7.51197 15.75 7.005 13.7785 7.005 13.7785V8.10596Z" fill="#E1E5E8"/>
<mask id="mask5_28_128" style="mask-type:luminance" maskUnits="userSpaceOnUse" x="7" y="8" width="7" height="8">
<path fill-rule="evenodd" clip-rule="evenodd" d="M7.005 8.10596H13.83V13.8292C13.83 13.8292 13.323 15.75 10.4175 15.75C7.51197 15.75 7.005 13.7785 7.005 13.7785V8.10596Z" fill="white"/>
</mask>
<g mask="url(#mask5_28_128)">
<rect x="7.005" y="11.634" width="3.465" height="3.822" fill="#FFC034"/>
<rect x="7.425" y="11.83" width="0.42" height="3.626" fill="#AD1619"/>
<rect x="8.895" y="11.83" width="0.42" height="3.626" fill="#AD1619"/>
<rect x="8.16" y="11.83" width="0.42" height="3.626" fill="#AD1619"/>
<rect x="9.63" y="11.83" width="0.42" height="3.626" fill="#AD1619"/>
<rect x="7.005" y="8.008" width="3.465" height="3.724" fill="#AD1619"/>
<rect x="10.365" y="11.5359" width="3.465" height="3.724" fill="#AD1619"/>
<rect x="10.365" y="8.10596" width="3.675" height="3.626" fill="#F1F9FF"/>
<path d="M8.79018 9.21326H9.00014V8.80603H9.31459V9.21326H9.63002V9.72107H9.31459V10.6361H9.63002V11.1439H7.74037V10.6361H8.05482V9.72107H7.74037V9.21326H7.95033V8.80603H8.26479V9.21326H8.47475V8.39978H8.79018V9.21326Z" fill="#C88A02"/>
<path d="M11.8369 8.57855C12.0867 8.48547 12.3778 8.58356 12.625 8.91254C12.766 9.10033 12.7664 9.30805 12.6289 9.47211C12.5596 9.55476 12.4639 9.61633 12.3477 9.66742C12.4359 9.78379 12.4886 9.84914 12.5791 9.94476C12.622 9.99011 12.6603 10.0334 12.6943 10.0737C12.7269 10.0565 12.7677 10.042 12.8184 10.0278C12.8266 10.0255 12.8357 10.0233 12.8447 10.0209C12.8773 10.0125 12.9007 10.0055 12.9199 9.99945C12.9851 9.97904 13 9.97942 13.0029 9.88129V9.70941C13.0029 9.65038 13.0012 9.60013 12.9961 9.4848C12.9958 9.47906 12.9954 9.47874 12.9951 9.47308C12.9762 9.04941 12.9939 8.8872 13.1328 8.77094L13.2725 8.91644C13.205 8.97308 13.1897 9.11976 13.2051 9.46527C13.2053 9.47064 13.2058 9.47135 13.2061 9.47699C13.2113 9.59486 13.2129 9.64677 13.2129 9.70941C13.2129 9.72789 13.2129 9.72853 13.2129 9.74652C13.2133 10.0581 13.1882 10.123 12.9873 10.186C12.9638 10.1933 12.9362 10.2001 12.9004 10.2094C12.893 10.2113 12.8855 10.2134 12.8789 10.2153C12.85 10.2234 12.8298 10.229 12.8154 10.2348C12.8349 10.2656 12.8512 10.2944 12.8633 10.3217C12.9199 10.4496 12.9018 10.5715 12.7969 10.6401C12.7971 10.6414 12.7976 10.6428 12.7979 10.644C12.7986 10.6474 12.799 10.6505 12.8018 10.6606C12.8141 10.707 12.8118 10.7536 12.7891 10.9418C12.7763 11.0474 12.777 11.1168 12.7842 11.1362C12.777 11.118 12.7511 11.0976 12.7148 11.0981L12.709 11.0932C12.7073 11.0949 12.7057 11.0965 12.7041 11.0981C12.7077 11.0976 12.7115 11.0981 12.7148 11.0981L12.7227 11.1049C12.7188 11.1055 12.7152 11.1071 12.7119 11.1078L12.7021 11.0991C12.6934 11.1077 12.6869 11.1144 12.6826 11.1176L12.6846 11.1166C12.6905 11.1133 12.6996 11.1105 12.7119 11.1078L12.8506 11.225C12.7623 11.3157 12.6354 11.3308 12.5859 11.2026C12.5642 11.1456 12.5647 11.0559 12.5811 10.9203C12.6002 10.7618 12.6021 10.7229 12.5986 10.7084C12.5965 10.701 12.5937 10.6923 12.5918 10.684C12.5844 10.6509 12.5806 10.6067 12.5801 10.5336L12.4971 10.7026C12.4039 10.6623 12.3559 10.6257 12.3438 10.562C12.3395 10.5392 12.3423 10.5177 12.3486 10.4965C12.3515 10.487 12.3549 10.4773 12.3594 10.4662C12.3704 10.4381 12.3679 10.4214 12.3203 10.3608C12.3085 10.3458 12.2969 10.329 12.2842 10.312C12.2804 10.3109 12.2762 10.31 12.2725 10.309C12.2232 10.2955 12.1808 10.2861 12.1465 10.2797C12.1578 10.3074 12.1714 10.3373 12.1875 10.3715C12.1892 10.3749 12.245 10.4907 12.2588 10.5219C12.2868 10.5854 12.3018 10.633 12.3047 10.6801C12.3168 10.8806 12.1434 10.9288 11.9268 10.8696C11.7651 10.8253 11.6821 10.8074 11.6592 10.808C11.7308 10.8061 11.7702 10.7328 11.7656 10.7055L11.4541 10.7514C11.4331 10.6265 11.491 10.5185 11.6504 10.5141C11.7108 10.5125 11.7882 10.5273 11.9346 10.5659C11.9246 10.5446 11.9133 10.5193 11.8994 10.4897C11.8646 10.4157 11.8398 10.3564 11.8203 10.2963C11.7657 10.1281 11.8567 9.99579 12.0312 9.97894C12.0402 9.97808 12.0493 9.97828 12.0586 9.97797C12.0209 9.91906 11.9816 9.85505 11.9395 9.78656C11.916 9.79082 11.8943 9.79737 11.874 9.80023L11.8613 9.72504C11.774 9.81588 11.6862 9.90059 11.5996 9.96429C11.3906 10.118 11.1962 10.1692 11.0498 10.0161L11.2852 9.81976C11.2774 9.81172 11.2643 9.80902 11.2715 9.80707C11.3025 9.79891 11.3491 9.77347 11.4043 9.73285C11.4635 9.68928 11.5266 9.63101 11.5908 9.56683C11.5026 9.51204 11.4158 9.43726 11.332 9.34222C11.2687 9.27041 11.2133 9.22243 11.1611 9.1889C11.1352 9.17227 11.0583 9.13347 11.0469 9.1264C10.9169 9.04492 10.9243 8.96731 11.0029 8.78265L11.2959 8.89105C11.2923 8.89957 11.289 8.90743 11.2861 8.91449C11.3049 8.92487 11.3246 8.93692 11.3398 8.94672C11.4166 8.9961 11.4936 9.06312 11.5752 9.1557C11.6558 9.24713 11.7306 9.30749 11.7998 9.34222L11.7959 9.31586C11.8098 9.31388 11.8383 9.30917 11.876 9.30121C11.9393 9.28782 12.0027 9.27042 12.0596 9.25043C12.1182 9.22981 12.164 9.20812 12.1914 9.18988C12.1208 9.09692 12.0644 9.05166 12.0254 9.03851C12.0197 9.03661 12.0251 9.03628 12.0322 9.03363C12.0396 9.03081 12.0489 9.026 12.0605 9.01801L11.748 8.62445C11.7705 8.60896 11.8001 8.59227 11.8369 8.57855ZM12.5732 10.436C12.5742 10.4624 12.5717 10.4881 12.5635 10.5141C12.5682 10.5164 12.5742 10.5183 12.5801 10.5209C12.5801 10.5184 12.5801 10.5158 12.5801 10.5131C12.5801 10.4915 12.5788 10.4711 12.5781 10.4487C12.5769 10.4466 12.5759 10.4421 12.5732 10.436Z" fill="#C37C9C"/>
<path d="M12.1676 8.57062L12.3827 8.35577L12.8341 8.74937L12.6191 8.96421L12.1676 8.57062Z" fill="#C88A02"/>
<path d="M13.4623 14.1226L13.4584 14.1392C13.325 14.6562 12.8721 14.9165 12.1498 14.9165C11.4271 14.9165 10.9742 14.6498 10.8412 14.1216L10.8373 14.105V11.9771H13.4623V14.1226ZM11.1528 14.0698C11.2535 14.4405 11.5699 14.6225 12.1498 14.6226C12.7299 14.6226 13.0474 14.4458 13.1479 14.0874V12.271H11.1528V14.0698Z" fill="#FFC034"/>
<path d="M12.2585 13.0258L13.0202 12.2533L13.1745 12.3861L12.3943 13.1781H13.2673V13.472H12.3786L13.1745 14.2806L13.0202 14.4135L12.2585 13.64V14.6752H12.0398V13.5375L11.1775 14.4135L11.0232 14.2806L11.8181 13.472H11.0964V13.1781H11.8035L11.0232 12.3861L11.1775 12.2533L12.0398 13.1283V12.1566H12.2585V13.0258Z" fill="#FFC034"/>
<path fill-rule="evenodd" clip-rule="evenodd" d="M12.64 15.2623C12.64 15.2623 10.4161 15.4255 10.4161 14.0868C10.4161 14.0868 10.3949 15.2623 8.07272 15.2623V16.3192H12.64V15.2623Z" fill="#F1F9FF"/>
<path fill-rule="evenodd" clip-rule="evenodd" d="M10.4175 12.418C10.8524 12.418 11.205 12.067 11.205 11.634C11.205 11.201 10.8524 10.85 10.4175 10.85C9.98257 10.85 9.63 11.201 9.63 11.634C9.63 12.067 9.98257 12.418 10.4175 12.418Z" fill="#005BBF" stroke="#AD1619" stroke-width="1.16667"/>
</g>
</g>
</g>
</g>
<defs>
<clipPath id="clip0_28_128">
<rect width="30" height="20" rx="3" fill="white"/>
</clipPath>
</defs>
</svg>
