<svg width="30" height="20" viewBox="0 0 30 20" fill="none" xmlns="http://www.w3.org/2000/svg">
<g clip-path="url(#clip0_36_291)">
<mask id="mask0_36_291" style="mask-type:luminance" maskUnits="userSpaceOnUse" x="0" y="0" width="30" height="20">
<rect width="30" height="20" fill="white"/>
</mask>
<g mask="url(#mask0_36_291)">
<path fill-rule="evenodd" clip-rule="evenodd" d="M0 0H30V20H0V0Z" fill="#F7FCFF"/>
<path fill-rule="evenodd" clip-rule="evenodd" d="M0 12.2222V13.8889H30V12.2222H0Z" fill="#E31D1C"/>
<path fill-rule="evenodd" clip-rule="evenodd" d="M0 15.2778V16.9444H30V15.2778H0Z" fill="#E31D1C"/>
<path fill-rule="evenodd" clip-rule="evenodd" d="M0 6.11111V7.77778H30V6.11111H0Z" fill="#E31D1C"/>
<path fill-rule="evenodd" clip-rule="evenodd" d="M0 18.3333V20H30V18.3333H0Z" fill="#E31D1C"/>
<path fill-rule="evenodd" clip-rule="evenodd" d="M0 9.16666V10.8333H30V9.16666H0Z" fill="#E31D1C"/>
<path fill-rule="evenodd" clip-rule="evenodd" d="M0 0V1.66667H30V0H0Z" fill="#E31D1C"/>
<path fill-rule="evenodd" clip-rule="evenodd" d="M0 3.05554V4.72221H30V3.05554H0Z" fill="#E31D1C"/>
<rect width="18.75" height="10.8333" fill="#2E42A5"/>
<path d="M1.92366 8.3071H2.59651L2.06819 8.78464L2.27327 9.53952L1.61409 9.11569L0.933426 9.53952L1.16389 8.78464L0.559402 8.3071H1.34846L1.61311 7.69089L1.92366 8.3071ZM5.67366 8.3071H6.34651L5.81819 8.78464L6.02327 9.53952L5.36409 9.11569L4.68343 9.53952L4.91389 8.78464L4.3094 8.3071H5.09846L5.36311 7.69089L5.67366 8.3071ZM9.42366 8.3071H10.0965L9.56819 8.78464L9.77327 9.53952L9.11409 9.11569L8.43343 9.53952L8.66389 8.78464L8.0594 8.3071H8.84846L9.11311 7.69089L9.42366 8.3071ZM13.1737 8.3071H13.8465L13.3182 8.78464L13.5233 9.53952L12.8641 9.11569L12.1834 9.53952L12.4139 8.78464L11.8094 8.3071H12.5985L12.8631 7.69089L13.1737 8.3071ZM16.9237 8.3071H17.5965L17.0682 8.78464L17.2733 9.53952L16.6141 9.11569L15.9334 9.53952L16.1639 8.78464L15.5594 8.3071H16.3485L16.6131 7.69089L16.9237 8.3071ZM3.79866 6.64011H4.47151L3.94319 7.11862L4.14827 7.87253L3.48909 7.4487L2.80843 7.87253L3.03889 7.11862L2.4344 6.64011H3.22346L3.48811 6.0239L3.79866 6.64011ZM7.54866 6.64011H8.22151L7.69319 7.11862L7.89827 7.87253L7.23909 7.4487L6.55843 7.87253L6.78889 7.11862L6.1844 6.64011H6.97346L7.23811 6.0239L7.54866 6.64011ZM11.2987 6.64011H11.9715L11.4432 7.11862L11.6483 7.87253L10.9891 7.4487L10.3084 7.87253L10.5389 7.11862L9.9344 6.64011H10.7235L10.9881 6.0239L11.2987 6.64011ZM15.0487 6.64011H15.7215L15.1932 7.11862L15.3983 7.87253L14.7391 7.4487L14.0584 7.87253L14.2889 7.11862L13.6844 6.64011H14.4735L14.7381 6.0239L15.0487 6.64011ZM1.92366 4.97311H2.59651L2.06819 5.45163L2.27327 6.20651L1.61409 5.78268L0.933426 6.20651L1.16389 5.45163L0.559402 4.97311H1.34846L1.61311 4.35788L1.92366 4.97311ZM5.67366 4.97311H6.34651L5.81819 5.45163L6.02327 6.20651L5.36409 5.78268L4.68343 6.20651L4.91389 5.45163L4.3094 4.97311H5.09846L5.36311 4.35788L5.67366 4.97311ZM9.42366 4.97311H10.0965L9.56819 5.45163L9.77327 6.20651L9.11409 5.78268L8.43343 6.20651L8.66389 5.45163L8.0594 4.97311H8.84846L9.11311 4.35788L9.42366 4.97311ZM13.1737 4.97311H13.8465L13.3182 5.45163L13.5233 6.20651L12.8641 5.78268L12.1834 6.20651L12.4139 5.45163L11.8094 4.97311H12.5985L12.8631 4.35788L13.1737 4.97311ZM16.9237 4.97311H17.5965L17.0682 5.45163L17.2733 6.20651L16.6141 5.78268L15.9334 6.20651L16.1639 5.45163L15.5594 4.97311H16.3485L16.6131 4.35788L16.9237 4.97311ZM3.79866 3.3071H4.47151L3.94319 3.78464L4.14827 4.53952L3.48909 4.11569L2.80843 4.53952L3.03889 3.78464L2.4344 3.3071H3.22346L3.48811 2.69089L3.79866 3.3071ZM7.54866 3.3071H8.22151L7.69319 3.78464L7.89827 4.53952L7.23909 4.11569L6.55843 4.53952L6.78889 3.78464L6.1844 3.3071H6.97346L7.23811 2.69089L7.54866 3.3071ZM11.2987 3.3071H11.9715L11.4432 3.78464L11.6483 4.53952L10.9891 4.11569L10.3084 4.53952L10.5389 3.78464L9.9344 3.3071H10.7235L10.9881 2.69089L11.2987 3.3071ZM15.0487 3.3071H15.7215L15.1932 3.78464L15.3983 4.53952L14.7391 4.11569L14.0584 4.53952L14.2889 3.78464L13.6844 3.3071H14.4735L14.7381 2.69089L15.0487 3.3071ZM1.92366 1.64011H2.59651L2.06819 2.11862L2.27327 2.87253L1.61409 2.4487L0.933426 2.87253L1.16389 2.11862L0.559402 1.64011H1.34846L1.61311 1.0239L1.92366 1.64011ZM5.67366 1.64011H6.34651L5.81819 2.11862L6.02327 2.87253L5.36409 2.4487L4.68343 2.87253L4.91389 2.11862L4.3094 1.64011H5.09846L5.36311 1.0239L5.67366 1.64011ZM9.42366 1.64011H10.0965L9.56819 2.11862L9.77327 2.87253L9.11409 2.4487L8.43343 2.87253L8.66389 2.11862L8.0594 1.64011H8.84846L9.11311 1.0239L9.42366 1.64011ZM13.1737 1.64011H13.8465L13.3182 2.11862L13.5233 2.87253L12.8641 2.4487L12.1834 2.87253L12.4139 2.11862L11.8094 1.64011H12.5985L12.8631 1.0239L13.1737 1.64011ZM16.9237 1.64011H17.5965L17.0682 2.11862L17.2733 2.87253L16.6141 2.4487L15.9334 2.87253L16.1639 2.11862L15.5594 1.64011H16.3485L16.6131 1.0239L16.9237 1.64011Z" fill="#F7FCFF"/>
</g>
<mask id="mask1_36_291" style="mask-type:luminance" maskUnits="userSpaceOnUse" x="0" y="-1" width="30" height="22">
<rect y="-0.5" width="30" height="21" fill="white"/>
</mask>
<g mask="url(#mask1_36_291)">
<path fill-rule="evenodd" clip-rule="evenodd" d="M0 -0.5V20.5H30V-0.5H0Z" fill="#2E42A5"/>
<mask id="mask2_36_291" style="mask-type:luminance" maskUnits="userSpaceOnUse" x="0" y="-1" width="30" height="22">
<path fill-rule="evenodd" clip-rule="evenodd" d="M0 -0.5V20.5H30V-0.5H0Z" fill="white"/>
</mask>
<g mask="url(#mask2_36_291)">
<mask id="mask3_36_291" style="mask-type:luminance" maskUnits="userSpaceOnUse" x="0" y="-1" width="30" height="22">
<rect y="-0.5" width="30" height="21" fill="white"/>
</mask>
<g mask="url(#mask3_36_291)">
<path d="M-3.34045 18.9997L3.26114 21.6055L30.1498 2.33311L33.632 -1.53918L26.5725 -2.41012L15.6053 5.89492L6.77779 11.4906L-3.34045 18.9997Z" fill="white"/>
<path d="M-2.43668 20.8254L0.926526 22.3376L32.3816 -1.89896H27.6592L-2.43668 20.8254Z" fill="#F50100"/>
<path d="M33.3404 18.9997L26.7389 21.6055L-0.149798 2.33311L-3.63198 -1.53918L3.42746 -2.41012L14.3947 5.89492L23.2222 11.4906L33.3404 18.9997Z" fill="white"/>
<path d="M33.1152 20.31L29.752 21.8222L16.3581 11.4453L12.3871 10.2859L-3.96705 -1.52592H0.755277L17.1002 10.0055L21.4418 11.3957L33.1152 20.31Z" fill="#F50100"/>
<mask id="path-21-inside-1_36_291" fill="white">
<path d="M18.5421 6.5H31.9005V13.5H18.5421V22.25H11.4581V13.5H-1.84952V6.5H11.4581V-2.25H18.5421V6.5Z"/>
</mask>
<path d="M18.5421 6.5H31.9005V13.5H18.5421V22.25H11.4581V13.5H-1.84952V6.5H11.4581V-2.25H18.5421V6.5Z" fill="#F50100"/>
<path d="M18.5421 6.5H17.5421V7.5H18.5421V6.5ZM31.9005 6.5H32.9005V5.5H31.9005V6.5ZM31.9005 13.5V14.5H32.9005V13.5H31.9005ZM18.5421 13.5V12.5H17.5421V13.5H18.5421ZM18.5421 22.25V23.25H19.5421V22.25H18.5421ZM11.4581 22.25H10.4581V23.25H11.4581V22.25ZM11.4581 13.5H12.4581V12.5H11.4581V13.5ZM-1.84952 13.5H-2.84952V14.5H-1.84952V13.5ZM-1.84952 6.5V5.5H-2.84952V6.5H-1.84952ZM11.4581 6.5V7.5H12.4581V6.5H11.4581ZM11.4581 -2.25V-3.25H10.4581V-2.25H11.4581ZM18.5421 -2.25H19.5421V-3.25H18.5421V-2.25ZM18.5421 6.5V7.5H31.9005V6.5V5.5H18.5421V6.5ZM31.9005 6.5H30.9005V13.5H31.9005H32.9005V6.5H31.9005ZM31.9005 13.5V12.5H18.5421V13.5V14.5H31.9005V13.5ZM18.5421 13.5H17.5421V22.25H18.5421H19.5421V13.5H18.5421ZM18.5421 22.25V21.25H11.4581V22.25V23.25H18.5421V22.25ZM11.4581 22.25H12.4581V13.5H11.4581H10.4581V22.25H11.4581ZM11.4581 13.5V12.5H-1.84952V13.5V14.5H11.4581V13.5ZM-1.84952 13.5H-0.849518V6.5H-1.84952H-2.84952V13.5H-1.84952ZM-1.84952 6.5V7.5H11.4581V6.5V5.5H-1.84952V6.5ZM11.4581 6.5H12.4581V-2.25H11.4581H10.4581V6.5H11.4581ZM11.4581 -2.25V-1.25H18.5421V-2.25V-3.25H11.4581V-2.25ZM18.5421 -2.25H17.5421V6.5H18.5421H19.5421V-2.25H18.5421Z" fill="white" mask="url(#path-21-inside-1_36_291)"/>
</g>
</g>
</g>
</g>
<defs>
<clipPath id="clip0_36_291">
<rect width="30" height="20" rx="3" fill="white"/>
</clipPath>
</defs>
</svg>
